<?xml version="1.0" encoding="UTF-8" standalone="no"?>
<!-- Created with Inkscape (http://www.inkscape.org/) -->

<svg
   width="256mm"
   height="256mm"
   viewBox="0 0 256 256"
   version="1.1"
   id="svg1"
   inkscape:version="1.3.2 (091e20e, 2023-11-25, custom)"
   sodipodi:docname="banner_logo.svg"
   xmlns:inkscape="http://www.inkscape.org/namespaces/inkscape"
   xmlns:sodipodi="http://sodipodi.sourceforge.net/DTD/sodipodi-0.dtd"
   xmlns="http://www.w3.org/2000/svg"
   xmlns:svg="http://www.w3.org/2000/svg">
  <sodipodi:namedview
     id="namedview1"
     pagecolor="#ffffff"
     bordercolor="#000000"
     borderopacity="0.25"
     inkscape:showpageshadow="2"
     inkscape:pageopacity="0.0"
     inkscape:pagecheckerboard="0"
     inkscape:deskcolor="#d1d1d1"
     inkscape:document-units="mm"
     inkscape:zoom="1.0242632"
     inkscape:cx="459.84273"
     inkscape:cy="403.70482"
     inkscape:window-width="1920"
     inkscape:window-height="1009"
     inkscape:window-x="-8"
     inkscape:window-y="-8"
     inkscape:window-maximized="1"
     inkscape:current-layer="layer1" />
  <defs
     id="defs1">
    <rect
       x="83.962792"
       y="169.87821"
       width="315.34863"
       height="129.84943"
       id="rect45" />
    <rect
       x="149.11701"
       y="258.19333"
       width="165.68555"
       height="75.93921"
       id="rect1" />
  </defs>
  <g
     inkscape:groupmode="layer"
     id="layer3"
     inkscape:label="flames"
     style="display:inline">
    <path
       style="opacity:0.65;fill:#000080;stroke:#000080;stroke-width:0.264583;stroke-opacity:1"
       d="m 115.04599,98.316841 c -0.24354,0.60886 -0.55047,1.19604 -0.73062,1.826569 -0.0669,0.23417 0.0591,0.49435 0,0.73062 -0.20403,0.81612 -1.1239,1.51717 -1.46126,2.19189 -0.76017,1.52035 0.0252,-0.39054 -0.73062,0.36531 -0.75585,0.75585 1.15503,-0.0296 -0.36532,0.73063 -0.10891,0.0545 -0.27921,-0.0861 -0.36531,0 -0.17221,0.17221 0.17221,0.55841 0,0.73063 -0.22444,0.22443 -0.8513,0.24134 -1.09594,0.73062 -0.20457,0.40913 -0.17221,1.07505 -0.36532,1.46126 -0.0285,0.0571 -1.43272,0.67356 -1.46125,0.73062 -0.10892,0.21784 0.17221,0.55842 0,0.73063 -1.3121,1.3121 -0.16712,-1.57588 -1.46125,0.36532 -0.1351,0.20263 0.10891,0.51279 0,0.73062 -0.0745,0.14898 -1.57279,0.28072 -1.82657,0.36532 -2.45628,0.81876 -5.427393,1.1221 -7.671593,0 -0.32675,-0.16338 -0.74153,0.0886 -1.09594,0 -0.24354,-0.12178 -0.48709,-0.24355 -0.73063,-0.36532 0,-0.12177 0.10892,-0.31085 0,-0.36531 -0.58029,-0.29015 -6.1642,-0.15959 -6.57564,-0.36531 -0.48067,-0.24034 -2.83065,-1.3694 -2.92251,-1.46126 -0.81195,-0.81194 -0.0319,-3.74891 -0.36532,-4.74908 -0.0861,-0.25831 -0.2792,-0.47231 -0.36531,-0.73062 -0.077,-0.23105 0.13509,-0.52799 0,-0.73063 -0.28658,-0.42986 -0.8649,-0.63385 -1.09594,-1.09594 -0.10892,-0.217829 0.10891,-0.512799 0,-0.730629 -0.23329,-0.46658 -0.73226,-0.36695 -1.09594,-0.73063 -0.28874,-0.28873 -0.33461,-0.96393 -0.73063,-1.09594 -0.34657,-0.11552 -0.93257,0.32675 -1.09594,0 -0.15561,-0.31122 -0.0849,-1.18082 -0.36531,-1.46125 -0.48709,-0.48709 -0.35054,0.77495 -0.73063,-0.36532 -0.27242,-0.81724 -0.0867,-1.72129 -0.36532,-2.55719 -0.0545,-0.16337 -0.32354,-0.19825 -0.36531,-0.36531 -0.27804,-1.11217 0.1828,-1.46098 -0.36531,-2.5572 -0.10892,-0.217831 0.10891,-0.512797 0,-0.730628 -0.21277,-0.425543 -0.51786,-0.670396 -0.73063,-1.095941 -0.10892,-0.217832 0.10892,-0.512797 0,-0.730626 -0.47157,-0.943149 -0.65027,0.241073 -1.09594,-1.095941 -0.0687,-0.206235 -0.3813,-1.461257 -0.73063,-1.461257 -0.27229,0 0.17278,0.538091 0.36532,0.730629 0.3229,0.322908 0.92817,1.6588 1.09594,1.826569 0.17221,0.172209 0.55841,-0.172212 0.73062,0 0.18266,0.182655 0.18266,0.547968 0.36532,0.730626 0.30443,0.304429 1.15682,0.06089 1.46125,0.365313 0.13007,0.130069 0.35246,1.083087 0.36532,1.095941 0.67157,0.671575 0.36531,-2.296091 0.36531,-2.557195 0,-0.42699 -0.2931,-2.484986 -0.36531,-2.557196 -0.0861,-0.08611 -0.27921,0.08611 -0.36532,0 -0.31045,-0.310456 -0.53428,-0.703241 -0.73063,-1.095941 -0.0545,-0.108916 0.0861,-0.279207 0,-0.365313 -0.0649,-0.0649 -0.83654,-0.47123 -1.09594,-0.730628 -0.12177,-0.121769 -0.24354,-0.243541 -0.36531,-0.365313 0,-0.121772 0.0861,-0.279209 0,-0.365313 -0.0861,-0.08611 -0.32681,0.115523 -0.36531,0 -0.19488,-0.584615 0,-1.905635 0,-2.557195 0,-1.962637 0.32174,-4.279895 0,-6.210334 -0.1164,-0.698397 -1.51766,-2.69689 -1.46126,-2.922508 0.42306,-1.692217 1.56877,-0.945645 2.19188,-2.191883 0.36276,-0.725508 2.01986,-2.965013 2.19189,-3.653136 0.20135,-0.805416 -0.13122,-2.135219 0,-2.922508 0.0448,-0.268584 0.31191,-0.463627 0.36531,-0.730629 0.29075,-1.453758 0,-3.268509 0,-4.749077 0,-0.730626 0,-1.461254 0,-2.191883 0,-0.121769 0.12177,-0.365312 0,-0.365312 -0.36531,0 0,0.730628 0,1.095941 0,1.339485 0,2.678967 0,4.018449 0,1.063173 -0.42357,4.997884 0,5.845019 0.14364,0.287287 0.56267,1.293302 0.73063,1.461254 0.0861,0.08611 0.29776,-0.10132 0.36531,0 0.51903,0.77855 0.4656,1.762112 0.73063,2.557198 0.10891,0.326744 0.62171,0.403878 0.73063,0.730625 0.32466,0.974001 -0.24869,2.293089 0,3.287824 0.0418,0.167069 0.31085,0.201941 0.36531,0.365313 0.12052,0.361574 0.0798,1.17575 0.36531,1.461254 0.2466,0.246602 0.48403,-0.246602 0.73063,0 0.0861,0.08611 -0.0861,0.279209 0,0.365315 0.0889,0.08893 1.43296,0.05659 1.46125,0 0.10892,-0.217831 -0.10891,-0.512796 0,-0.730628 0.23105,-0.462089 0.8649,-0.633852 1.09595,-1.095941 0.23151,-0.463018 0,-1.66284 0,-2.191882 0,-0.730626 0,-1.461255 0,-2.19188 0,-0.121772 0.12177,-0.365316 0,-0.365316 -0.0359,0 -0.0885,1.007428 0.36531,1.461254 0.19254,0.192538 0.57959,0.138758 0.73063,0.365316 0.15779,0.236693 0.10893,1.204875 0.36531,1.461254 0.31957,0.319569 3.05931,0.197943 3.65314,0 0.13009,-0.04337 2.17754,-1.081601 2.19188,-1.095941 0.0861,-0.08611 -0.0676,-0.263994 0,-0.365313 0.19105,-0.286576 0.5766,-0.422569 0.73063,-0.730629 0.16337,-0.326747 -0.16338,-0.769194 0,-1.095941 0.67627,-1.352547 0.73062,-2.340925 0.73062,-4.018449 0,-1.140182 -1.09613,-2.191295 -0.73062,-3.287824 0.54666,-1.639998 3.63936,-1.724906 4.749073,-2.557195 0.21783,-0.163372 0.13876,-0.579588 0.36532,-0.730628 2.19188,-1.461254 0.0609,0.974172 0.73062,-0.365313 0.42719,-0.854377 1.21415,-1.934064 1.46126,-2.922508 0.0886,-0.354407 -0.25832,-0.837626 0,-1.095941 0.0861,-0.08611 0.31085,0.108915 0.36531,0 0.0769,-0.153731 0.13489,-3.152937 0.73063,-2.557196 0.96432,0.964322 1.92413,4.821712 1.46125,6.210332 -0.0756,0.226703 -2.53098,1.435037 -2.92251,1.826567 -0.27213,0.272135 -0.52421,1.254842 -0.73062,1.461257 -0.0861,0.0861 -0.31086,-0.108916 -0.36532,0 -0.21783,0.43566 0.15403,0.999164 0,1.461254 -0.0545,0.163372 -0.31085,0.20194 -0.36531,0.365313 -0.0365,0.10959 -0.20502,6.165603 0,6.575647 0.18358,0.367149 0.95731,2.053254 1.09594,2.19188 0.50196,0.501959 1.20682,0.365315 1.82657,0.365315 4.17186,0 3.19856,-6.30787 4.01845,-8.76753 0.12767,-0.383008 -0.29708,-1.894802 0,-2.191879 0.93408,-0.934088 1.01703,2.527966 1.09594,2.922508 0.0534,0.267001 0.29927,0.466468 0.36531,0.730628 0.0591,0.23627 -0.10891,0.512794 0,0.730626 0.0545,0.108916 0.27921,-0.0861 0.36532,0 0.23533,0.235334 -0.11493,1.116465 0,1.461254 0.0861,0.258318 0.29927,0.466468 0.36531,0.730628 0.12518,0.500732 -0.39424,2.893581 0,3.287824 0.0861,0.0861 0.27921,-0.08611 0.36531,0 0.25832,0.258315 -0.11552,0.749374 0,1.095941 0.10892,0.326745 0.5766,0.422566 0.73063,0.730626 0.1569,0.31379 0.0993,0.563988 0.36532,1.095941 0.19398,0.387972 0.0397,1.135607 0.36531,1.461254 0.159,0.159007 2.34066,0.108265 2.55719,0 0.43665,-0.218321 -0.70361,-0.730626 0.36532,-0.730626 0.0268,0 -0.0335,1.028909 0,1.095941 0.76017,1.520347 -0.0252,-0.390532 0.73063,0.365313 0.18265,0.182658 0.18265,0.547971 0.36531,0.730629 0.81268,0.812683 1.51173,-1.511732 1.82657,-1.82657 1.53669,-1.536689 0.96316,0.298606 1.46125,-2.191882 0.17948,-0.897393 0.80604,-1.687476 1.09594,-2.557196 0.16078,-0.482319 0,-1.306284 0,-1.826566 0,-0.22293 -0.14234,-1.318917 0,-1.461257 0.17222,-0.172209 0.67156,-0.23627 0.73063,0 0.11814,0.472543 -0.0801,0.980797 0,1.461257 0.14193,0.851569 0.51984,1.714044 0.73063,2.557195 0.16779,0.671152 0.35329,4.042489 0,4.749077 -0.27975,0.559507 -0.651,0.285682 -1.09594,0.730626 -0.20789,0.207891 -1.24268,2.485345 -1.46126,2.922511 -0.62013,1.240255 2.79803,-2.440842 2.92251,-2.191882 0.35797,0.715938 0,2.859963 0,3.653136 0,0.121772 0.0861,0.279207 0,0.365313 -0.18302,0.183023 -1.22176,0.125822 -1.46125,0.365313 -0.22767,0.227668 -0.33015,0.886912 -1.09595,1.461256 -0.35595,0.266968 -0.87246,0.283684 -1.09593,0.730626 -0.49046,0.980908 0.44186,2.200616 0.73062,2.922511 0.29005,0.725127 0.21769,4.461322 0,5.114387 -0.31716,0.95148 -0.59593,0.23062 -1.09594,0.73063 -0.17221,0.17221 0.077,0.49958 0,0.73063 -0.10892,0.32674 -0.64709,0.39649 -0.73063,0.73063 -0.0886,0.3544 0.0886,0.74153 0,1.09594 -0.25339,1.01356 -0.33313,-0.0322 -0.73062,0.36531 -0.24354,0.24354 0.24354,1.21771 0,1.46125 -0.0861,0.0861 -0.2564,-0.0545 -0.36532,0 -1.03253,0.51627 -1.04524,1.25498 -1.82657,2.5572 z"
       id="path41"
       inkscape:export-filename="path41.png"
       inkscape:export-xdpi="96"
       inkscape:export-ydpi="96" />
    <path
       style="opacity:0.65;fill:#0000ff;stroke:#0000ff;stroke-width:0.264583;stroke-opacity:1"
       d="m 95.447667,107.71767 c -0.2546,-0.0304 -0.94263,0.0906 -1.16242,-0.12916 -0.0304,-0.0304 0.0304,-0.0987 0,-0.12916 -0.0609,-0.0609 -0.19743,0.0609 -0.25831,0 -0.0304,-0.0304 0.0304,-0.0987 0,-0.12915 -0.15818,-0.15819 -1.64355,0.14691 -1.93737,0 -0.0545,-0.0272 -0.0861,-0.0861 -0.12916,-0.12916 -0.12916,-0.043 -0.2657,-0.0683 -0.38747,-0.12916 -0.0957,-0.0478 -1.08734,-0.92064 -1.16242,-1.03326 -0.0534,-0.0801 -0.0491,-0.20492 -0.12916,-0.25832 -0.0716,-0.0478 -0.18667,0.0478 -0.25832,0 -0.1602,-0.1068 -0.12217,-0.38049 -0.25831,-0.51663 -0.0681,-0.0681 -0.19024,-0.0611 -0.25832,-0.12916 -0.0681,-0.0681 -0.0611,-0.19024 -0.12916,-0.25831 -0.0681,-0.0681 -0.17821,-0.0758 -0.25831,-0.12916 -0.20619,-0.13746 -0.22929,-0.35845 -0.38748,-0.51663 -0.26723,-0.26724 0.0104,0.40836 -0.25831,-0.12916 -0.0193,-0.0385 0,-0.0861 0,-0.12916 -0.043,-0.0861 -0.0758,-0.17821 -0.12916,-0.25831 -0.0338,-0.0507 -0.0861,-0.0861 -0.12916,-0.12916 -0.0861,-0.0861 -0.19077,-0.157 -0.25831,-0.25832 -0.0716,-0.10746 0.0313,-0.26217 0,-0.38747 -0.0562,-0.22493 -0.17221,-0.43053 -0.25832,-0.64579 -0.15622,-0.39055 -0.52146,-0.78943 -0.64579,-1.16242 -0.0545,-0.16338 0.0338,-0.34777 0,-0.51663 -0.0267,-0.1335 -0.0961,-0.2554 -0.12916,-0.38748 -0.0811,-0.324289 0.0656,-0.705099 0,-1.033259 -0.1942,-0.97102 -0.55152,-1.89779 -1.16242,-2.71232 -0.20175,-0.269 -0.38322,-0.56489 -0.64579,-0.77494 -0.17142,-0.13714 -0.46313,-0.007 -0.64578,-0.12916 -0.0358,-0.0239 0.0385,-0.10991 0,-0.12916 -0.077,-0.0385 -0.17221,0 -0.25832,0 -0.0861,-0.0861 -0.157,-0.19077 -0.25832,-0.25831 -0.19232,-0.12822 -0.26834,0.11912 -0.51663,-0.12916 -0.22439,-0.2244 -0.39268,-0.78536 -0.51663,-1.03326 -0.10622,-0.21245 -0.41041,-0.17504 -0.51663,-0.38748 -0.0385,-0.077 0.0385,-0.1813 0,-0.25831 -0.10333,-0.20666 -0.41331,-0.30998 -0.51663,-0.51664 -0.10753,-0.21504 -0.59483,-0.85314 -0.77495,-1.03326 -0.0681,-0.0681 -0.19024,-0.0611 -0.25832,-0.12916 -0.0304,-0.0304 0.0304,-0.0987 0,-0.12915 -0.0304,-0.0305 -0.0987,0.0304 -0.12915,0 -0.0681,-0.0681 -0.0611,-0.19025 -0.12916,-0.25832 -0.0681,-0.0681 -0.19024,-0.0611 -0.25832,-0.12916 -0.0609,-0.0609 0.0609,-0.19743 0,-0.25831 -0.0304,-0.0305 -0.0987,0.0304 -0.12915,0 -0.0431,-0.0431 -0.0861,-0.34443 -0.12916,-0.38748 -0.043,-0.0431 -0.17221,-0.0861 -0.12916,-0.12916 0.14984,-0.14983 0.8673,0.22152 0.9041,0.25832 0.0304,0.0304 -0.0304,0.0987 0,0.12916 0.0304,0.0304 0.0987,-0.0305 0.12916,0 0.0304,0.0304 -0.0193,0.0906 0,0.12916 0.0545,0.10891 0.21981,0.14279 0.25832,0.25831 0.0272,0.0817 -0.0385,0.1813 0,0.25832 0.0385,0.077 0.19743,-0.0609 0.25831,0 0.0304,0.0304 -0.0304,0.0987 0,0.12916 0.0304,0.0304 0.0987,-0.0305 0.12916,0 0.054,0.054 0.11047,0.35051 0.25832,0.38747 0.18776,0.0469 0.74334,0.0975 0.9041,0.25832 0.14054,0.14053 -0.22919,0.16872 0.12916,0.25831 0.37652,0.0941 0.67254,0.078 1.03326,0.25832 0.14553,0.0728 0.91717,0.50356 1.03327,0.38747 0.0583,-0.0583 -0.2695,-1.24377 -0.38748,-1.42074 -0.11948,-0.17923 -0.16315,-0.3263 -0.25831,-0.51663 -0.0385,-0.077 0.0385,-0.1813 0,-0.25831 -0.1312,-0.2624 -0.30097,-0.51544 -0.38748,-0.774953 -0.0904,-0.27123 0.0904,-0.632873 0,-0.904105 -0.0193,-0.05776 -0.1099,-0.07139 -0.12915,-0.129156 -0.0908,-0.272437 -0.0186,-0.572519 -0.12916,-0.904106 -0.0775,-0.232484 0.0775,-0.542464 0,-0.774948 -0.0491,-0.147262 -0.22067,-0.236879 -0.25832,-0.387472 -0.27288,-1.091554 0.21997,0.0071 -0.12916,-0.516633 -0.0976,-0.146445 -0.33612,-0.491734 -0.38747,-0.64579 -0.0272,-0.08168 0.0385,-0.1813 0,-0.258315 -0.0545,-0.108916 -0.19566,-0.153898 -0.25832,-0.258316 -0.10434,-0.173913 -0.72403,-1.733706 -0.77494,-1.937369 -0.0209,-0.08353 0.0272,-0.176628 0,-0.258315 -0.0569,-0.17073 -0.30516,-0.351997 -0.38748,-0.516631 -0.0193,-0.03851 0.0304,-0.09872 0,-0.129159 -0.0304,-0.03044 -0.1099,0.03851 -0.12915,0 -0.0385,-0.07702 0.0272,-0.176628 0,-0.258315 -0.0578,-0.173284 -0.2935,-0.230847 -0.38748,-0.387472 -0.39381,-0.09144 -0.0498,-0.357862 -0.12916,-0.516633 -0.11136,-0.22274 -0.43548,-0.402347 -0.51663,-0.64579 -0.0817,-0.115901 0.0408,-0.264943 0,-0.387472 -0.22292,-0.668755 -0.0793,0.299133 -0.25831,-0.774948 -0.10475,-0.628481 -0.0177,-1.350074 0.12916,-1.937367 0.12898,-0.515945 0.0386,-1.264626 0.12915,-1.808213 0.14252,-0.855112 0.24518,-1.729388 0.38748,-2.583156 0.10457,-0.627411 0.0251,-1.312828 0.12915,-1.937369 0.10364,-0.621845 0.25832,-1.184129 0.25832,-1.80821 0,-0.558316 0.13381,-1.272974 0,-1.80821 -0.0596,-0.238196 -0.16452,-0.329036 -0.25832,-0.516631 -0.0193,-0.03851 0,-0.172212 0,-0.129159 0,0.573807 -0.0813,1.239139 0,1.80821 0.057,0.398884 0.33036,0.67564 0.38748,0.904105 0.0522,0.208836 -0.08,0.445924 0,0.64579 0.0576,0.144127 0.20066,0.243348 0.25831,0.387474 0.13642,0.341033 -0.19102,0.196451 0.12916,0.516631 0.0304,0.03044 0.10991,-0.03851 0.12916,0 0.0578,0.115523 -0.0578,0.271952 0,0.387475 0.19811,0.396221 0.32146,0.707011 0.51663,1.16242 0.024,0.05596 0.11439,0.07009 0.12916,0.129159 0.0313,0.125301 -0.0212,0.260072 0,0.387472 0.0575,0.345199 0.30671,0.581048 0.38747,0.904107 0.0878,0.351322 0.0166,0.695667 0.12916,1.033262 0.0794,0.238156 0.30809,0.407635 0.38747,0.645789 0.0272,0.08169 -0.0272,0.176631 0,0.258316 0.1356,0.406778 0.70907,0.901509 0.90411,1.291579 0.066,0.132038 0.2964,0.683869 0.38747,0.774946 0.0304,0.03044 0.0987,-0.03044 0.12916,0 0.0304,0.03044 -0.0385,0.109906 0,0.129159 0.11552,0.05776 0.27195,-0.05776 0.38747,0 0.52997,0.26498 0.95539,0.258316 1.5499,0.258316 0.63359,0 1.15286,0.09248 1.67905,-0.258316 0.0963,-0.0642 0.33603,-0.284578 0.38747,-0.387474 0.15667,-0.313322 0.1469,-0.828167 0.25832,-1.162421 0.14562,-0.43684 0.29488,-0.828622 0.38747,-1.291579 0.11886,-0.594294 0,-1.327735 0,-1.937366 0,-0.09436 -0.34755,-1.162423 -0.38747,-1.162423 -0.15523,0 0.17845,0.254367 0.25832,0.387474 0.0701,0.116742 0.0475,0.278559 0.12915,0.387474 0.0578,0.07701 0.20056,0.05214 0.25832,0.129157 0.16292,0.21723 0.0954,0.428561 0.25832,0.645789 0.0731,0.09742 0.19566,0.153898 0.25831,0.258318 0.16113,0.268547 0.16261,0.808398 0.38748,1.033262 0.0609,0.06089 0.1813,-0.03851 0.25831,0 0.23849,0.119245 0.47335,0.197995 0.77495,0.258315 0.48861,0.09772 0.9506,-0.07039 1.42073,-0.129156 0.17089,-0.02135 0.35105,0.04731 0.51664,0 0.28712,-0.08204 0.95018,-0.562706 1.16242,-0.774949 0.10976,-0.109762 0.14855,-0.277709 0.25831,-0.387472 0.32006,-0.320061 0.66819,-0.510915 0.90411,-0.904107 0.14009,-0.233485 0.0949,-0.557115 0.25831,-0.774946 0.0578,-0.07702 0.22257,-0.03977 0.25832,-0.129159 0.26903,-0.672579 -0.22741,-0.329237 0.12916,-0.774946 0.1141,-0.142632 0.28615,-0.235496 0.38747,-0.387475 0.0755,-0.113279 0.0616,-0.269266 0.12916,-0.387472 0.1068,-0.186901 0.27672,-0.332046 0.38747,-0.516633 0.0913,-0.152212 0.0498,-0.357859 0.12916,-0.516631 0.0272,-0.05446 0.0861,-0.08611 0.12916,-0.129159 0.0861,-0.129156 0.20066,-0.243347 0.25831,-0.387471 0.032,-0.07995 -0.0209,-0.174781 0,-0.258318 0.10271,-0.410808 0.45433,-0.726239 0.51664,-1.162421 0.0781,-0.546801 -0.0908,-1.134393 0,-1.679051 0.15638,-0.938321 0.12915,0.04539 0.12915,-0.645789 0,-0.394317 -0.0951,-0.911056 0,-1.29158 0.0148,-0.05907 0.1144,-0.07009 0.12916,-0.129156 0.16572,-0.662895 -0.25909,-0.127611 0.12916,-0.904105 0.0193,-0.03851 0.11554,0.04084 0.12916,0 0.0545,-0.163375 -0.0955,-0.373346 0,-0.516634 0.46451,-0.696772 0.0402,0.08896 0.51663,-0.387474 0.0681,-0.06807 0.0611,-0.190243 0.12916,-0.258315 0.0681,-0.06807 0.19024,-0.06109 0.25831,-0.129157 0.163663,-0.163658 0.12916,-0.807537 0.12916,-1.033264 0,-0.08611 0.0609,-0.197429 0,-0.258315 -0.20666,-0.206656 -0.38747,0.684466 -0.38747,0.774946 0,0.387652 -0.17001,0.680032 -0.25832,1.033264 -0.12985,0.519427 0,1.273802 0,1.80821 0,0.838171 -0.033,1.643288 0.12916,2.454 0.0492,0.246092 -0.0608,0.531765 0,0.774949 0.0815,0.325831 0.46194,0.814511 0.51663,1.033261 0.0168,0.0672 -0.0591,0.527518 0,0.64579 0.0959,0.191741 0.338433,0.44963 0.387473,0.645789 0.0313,0.125302 -0.0253,0.260824 0,0.387475 0.0517,0.258336 0.20665,0.516609 0.25832,0.774946 0.0253,0.126651 -0.0212,0.260072 0,0.387474 -0.54096,0.894001 0.20923,0.24021 0.25832,0.387475 0.18454,0.553638 -0.0232,1.732012 0.64578,2.066525 0.36486,0.182425 1.3647,-0.02437 1.67906,-0.129159 0.0672,-0.02238 0.61981,-0.439063 0.77494,-0.516631 0.50431,-0.252153 0.77403,-0.154805 1.29158,-0.258315 0.39383,-0.07877 0.93403,-0.337854 1.29158,-0.516633 0.22144,-0.110718 0.053,-0.250569 0.25832,-0.387472 0.0801,-0.0534 0.19024,-0.06109 0.25831,-0.129159 0.0609,-0.06089 -0.0272,-0.176628 0,-0.258315 -0.23388,-0.540367 0.20386,-0.1494 0.25832,-0.258316 0.0794,-0.158771 0.0632,-0.351816 0.12916,-0.516631 0.13412,-0.335293 0.42244,-0.656494 0.51663,-1.033264 0.0313,-0.125301 -0.0913,-0.296145 0,-0.387474 0.0681,-0.06807 0.20492,-0.04906 0.25831,-0.129156 0.0478,-0.07164 -0.0272,-0.176631 0,-0.258318 0.0385,-0.115523 0.20386,-0.1494 0.25832,-0.258316 0.0385,-0.07701 -0.0385,-0.1813 0,-0.258315 0.0865,-0.172987 0.30812,-0.178964 0.38747,-0.258315 0.0963,-0.09627 0.0329,-0.291206 0.12916,-0.387475 0.0609,-0.06089 0,0.172212 0,0.258316 0,0.215265 0,0.430527 0,0.645789 0,0.64579 0,1.29158 0,1.937369 0,0.439836 -0.38325,2.191462 -0.64579,2.454 -0.0681,0.06807 -0.21526,0.04305 -0.25831,0.129157 -0.0578,0.115522 0.0313,0.262173 0,0.387474 -0.0295,0.118136 -0.22878,0.140182 -0.25832,0.258315 -0.0974,0.389531 -0.0205,2.542075 0.12916,2.841474 0.0193,0.03851 0.0987,-0.03044 0.12916,0 0.20239,0.202388 0.16963,0.758878 0.38747,0.904106 0.0716,0.04776 0.17663,-0.02723 0.25832,0 0.0578,0.01926 0.0747,0.101928 0.12915,0.129159 0.52726,0.263622 1.2595,-0.219652 1.67906,-0.387475 0.15989,-0.06396 0.34956,0.04177 0.51663,0 0.33653,-0.08413 0.5785,-0.462364 0.9041,-0.516631 0.16987,-0.02831 0.34777,0.03377 0.51663,0 0.0597,-0.01193 0.0714,-0.109905 0.12916,-0.129159 0.0817,-0.02723 0.17388,0.01688 0.25832,0 0.34837,-0.06968 0.69637,-0.331324 1.03326,-0.387474 0.39515,-0.06586 2.48891,-0.246679 2.84147,-0.129156 0.39497,0.131654 0.23857,0.238567 0.38748,0.387471 0.0669,0.06685 0.44978,0.06231 0.51663,0.129159 0.20008,0.200084 -0.30879,0.875906 -0.38747,1.033265 -0.0989,0.197815 -0.23016,0.101002 -0.38748,0.258315 -0.28205,0.282051 -0.0268,0.209701 -0.12916,0.516631 -0.13438,0.403143 -0.0861,-0.04305 -0.25831,0.129159 -0.0323,0.03229 -0.22056,0.554386 -0.12916,0.645789 0.13609,0.136083 0.87441,0.298366 0.90411,0.387472 0.0545,0.163375 0,0.344421 0,0.516633 0,0.860039 -0.44487,0.93758 -0.90411,1.549895 -0.11552,0.15403 -0.12217,0.380487 -0.25831,0.516631 -0.0304,0.03044 -0.11555,-0.04084 -0.12916,0 -0.0564,0.169222 -0.19367,1.291865 -0.12916,1.549895 0.15592,0.623697 0.0614,-0.0064 0.25832,0.387474 0.0706,0.141274 0.12502,0.383336 0.25831,0.516631 0.0304,0.03044 0.0907,-0.01926 0.12916,0 0.5911,0.295552 -0.54807,-0.05353 0.38747,0.258315 0.33033,0.110109 0.47997,0.05582 0.64579,0.387474 0.0578,0.115523 0.10747,0.315828 0,0.387472 -0.10746,0.07164 -0.26494,-0.04084 -0.38747,0 -0.14726,0.04909 -0.24213,0.203814 -0.38748,0.258318 -0.57717,0.216437 -1.2135,0.225282 -1.80821,0.387472 -0.41182,0.112318 -1.83532,0.724998 -2.06652,1.033264 -0.0817,0.108915 -0.0329,0.291205 -0.12916,0.387474 -0.0609,0.06089 -0.1813,-0.03851 -0.25832,0 -0.17221,0.0861 -0.68884,0.602737 -0.77494,0.774946 -0.0385,0.07702 0.0609,0.19743 0,0.258316 -0.0963,0.09627 -0.2657,0.06827 -0.38748,0.129159 -0.19702,0.09851 -0.324,0.29116 -0.51663,0.387474 -0.13662,0.06831 -0.43182,0.0887 -0.51663,0.258315 -0.0385,0.07702 -0.0817,0.231087 0,0.258316 0.18032,0.06011 2.6167,0.435279 2.97063,0.258319 0.17552,-0.0878 0.67502,-0.307535 0.77495,-0.387478 0.0752,-0.06014 0.0491,-0.204915 0.12916,-0.258316 0.0716,-0.04776 0.17663,0.02723 0.25831,0 0.11553,-0.03851 0.1428,-0.219808 0.25832,-0.258315 0.0416,-0.01386 0.71701,-0.18709 0.77495,-0.129159 0.17072,0.17072 0.12915,0.746183 0.12915,0.904105 0,0.322363 0.10298,0.853483 0,1.162423 -0.0681,0.20422 -0.30752,0.31676 -0.38747,0.51663 -0.032,0.0799 0.032,0.17837 0,0.25832 0.0716,0.31987 -0.2912,0.32409 -0.38747,0.51663 -0.14358,0.28714 -0.40127,0.74486 -0.51663,1.03326 -0.0924,0.23103 0.12622,0.25978 -0.12916,0.38748 -0.65864,0.32931 -1.39338,-0.57136 -1.93737,0.51663 -0.1582,0.3164 0.0789,0.73145 0.12916,1.03326 0.0869,0.52119 0.0317,1.32573 -0.12916,1.80821 -0.12029,0.36088 -0.41844,0.76965 -0.51663,1.16242 -0.0209,0.0835 0.0385,0.1813 0,0.25832 -0.1696,0.3392 -0.52935,0.68393 -0.64579,1.03326 -0.0272,0.0817 0.0478,0.186669 0,0.258319 -0.0534,0.0801 -0.19024,0.0611 -0.25832,0.12915 -0.0963,0.0963 -0.0329,0.29121 -0.12916,0.38748 -0.0304,0.0304 -0.10527,-0.0358 -0.12915,0 -0.17499,0.26248 -0.22492,0.63317 -0.38748,0.9041 -0.24216,0.4036 -0.68702,0.72826 -0.9041,1.16242 -0.0794,0.15877 -0.0592,0.35348 -0.12916,0.51663 -0.26442,0.61699 -0.73203,1.29175 -1.16242,1.80821 -0.64311,0.77174 -1.47022,1.1907 -2.32484,1.67906 -0.33389,0.19079 -0.5138,0.40511 -0.90411,0.51663 -0.24837,0.071 -0.51923,-0.0365 -0.77495,0 -0.69366,0.0991 -1.40457,0.22198 -2.06652,0.38747 -0.16707,0.0418 -0.34956,-0.0418 -0.51663,0 -0.0934,0.0234 -0.16392,0.11028 -0.25832,0.12916 -0.33128,0.0662 -0.69828,-0.0479 -1.03326,0 -0.492543,0.0704 -0.838813,0.27428 -1.291583,0.38747 -0.0835,0.0209 -0.17663,-0.0272 -0.25832,0 -0.0578,0.0193 -0.0714,0.10991 -0.12915,0.12916 -0.40009,0.13336 -1.61805,0 -2.06653,0 -0.12916,0 -0.28662,0.0807 -0.38747,0 -0.19018,-0.15214 -0.34442,-0.34442 -0.51664,-0.51663 z"
       id="path42" />
    <path
       style="opacity:0.65;fill:#ff00ff;stroke:#ff00ff;stroke-width:0.264583;stroke-opacity:1"
       d="m 94.801877,105.90946 c -1.22292,0.10227 -1.17462,-0.0785 -2.19568,-0.64579 -0.71887,-0.39937 -0.74101,-0.0952 -1.42074,-0.77495 -0.13614,-0.13614 -0.16279,-0.34946 -0.25831,-0.51663 -0.18375,-0.32156 -0.46204,-0.58255 -0.64579,-0.9041 -0.29053,-0.50843 -0.34442,-1.11937 -0.51663,-1.67906 -0.04,-0.13012 -0.11683,-0.25188 -0.12916,-0.38747 -0.0501,-0.55074 0.094,-1.244049 0,-1.808209 -0.0811,-0.48667 -0.34378,-0.85945 -0.51663,-1.29158 -0.032,-0.0799 0.0209,-0.17478 0,-0.25831 0.23389,-0.54037 -0.20386,-0.1494 -0.25832,-0.25832 -0.0385,-0.077 0.0478,-0.18667 0,-0.25832 -0.0534,-0.0801 -0.17821,-0.0757 -0.25831,-0.12915 -0.37874,-0.2525 -0.63174,-0.70335 -1.03327,-0.90411 -0.30276,-0.15138 -0.61372,-0.0841 -0.9041,-0.25831 -0.52565,-0.31539 0.008,-0.21256 -0.51663,-0.38748 -0.0817,-0.0272 -0.1813,0.0385 -0.25832,0 -0.30486,-0.15243 -0.16341,-0.42833 -0.51663,-0.51663 -0.20847,-0.0521 -0.61047,0.0353 -0.77495,-0.12916 -0.0609,-0.0609 0.0385,-0.1813 0,-0.25831 -0.12232,-0.24466 -0.51663,-0.099 -0.51663,-0.51663 0,-0.13615 0.26571,0.0683 0.38748,0.12915 0.23047,0.11524 0.42898,0.18605 0.64578,0.25832 0.33732,0.11244 0.39849,0.29336 0.77495,0.38747 0.0986,0.0247 0.44929,-0.0674 0.51663,0 0.0304,0.0304 -0.0304,0.0987 0,0.12916 0.0304,0.0304 0.10991,0.0385 0.12916,0 0.0746,-0.14917 0,-0.59445 0,-0.77495 0,-0.49138 0.0429,-2.1528 -0.25831,-2.454 -0.0304,-0.0304 -0.10991,0.0385 -0.12916,0 -0.16841,-0.33682 0.052,-0.92931 -0.12916,-1.29158 -0.35187,-0.703742 0.17183,1.31179 -0.38747,-0.645785 -0.0355,-0.12419 0.0355,-0.263287 0,-0.387474 -0.16698,-0.584433 -0.61355,-1.041413 -0.90411,-1.549895 -0.0116,-0.0204 -0.24203,-0.662077 -0.12916,-0.774946 0.0681,-0.06807 0.19025,-0.06109 0.25832,-0.129159 0.0609,-0.06089 0,-0.172209 0,-0.258315 0,-1.030158 -0.67589,-0.964314 -1.03326,-1.679054 -0.0352,-0.07038 -0.51664,-0.944086 -0.51664,-0.645787 0,0.129156 0.25832,0 0.38748,0 0.26722,0 0.9969,0.146709 1.16242,-0.129159 0.29402,-0.49004 -0.0315,-0.93885 0.12916,-1.420736 0.0136,-0.04084 0.0861,0 0.12915,0 0.0861,0 0.18668,-0.04776 0.25832,0 0.1034,0.06893 0.50721,0.671015 0.64579,0.774946 0.12418,0.09314 0.24863,0.188897 0.38747,0.258316 0.0385,0.01926 0.0987,-0.03044 0.12916,0 0.12123,0.121226 0.0438,0.517789 0.12916,0.645789 -0.31871,0.391023 0.35132,0.22216 0.38747,0.258316 0.0681,0.06807 0.0611,0.190243 0.12916,0.258315 0.10977,0.109765 0.27771,0.148553 0.38747,0.258318 0.0609,0.06088 -0.0385,0.1813 0,0.258315 0.26877,0.537523 -0.009,-0.138075 0.25832,0.129157 0.0457,0.04574 -0.12916,1.086228 -0.12916,1.16242 0,0.05745 0.0401,0.436481 0,0.516633 -0.0369,0.0738 -0.38408,0.261708 -0.25831,0.387475 0.0913,0.09133 0.26494,-0.04084 0.38747,0 0.0483,0.01609 0.41757,0.277757 0.51663,0.129156 0.0755,-0.113279 0.0475,-0.278559 0.12916,-0.387474 0.0578,-0.07702 0.19818,-0.05398 0.25831,-0.129157 0.30095,-0.376182 0.30936,-0.877022 0.51664,-1.291579 0.0545,-0.108916 0.19077,-0.156996 0.25831,-0.258315 0.18666,-0.279988 -0.0997,-1.925908 0,-2.324844 0.0376,-0.150593 0.22067,-0.236879 0.25832,-0.387472 0.0604,-0.241646 0.051,-0.540636 0.12916,-0.774948 0.0193,-0.05776 0.11439,-0.07009 0.12915,-0.129157 0.0635,-0.254097 -0.0371,-0.644699 0,-0.904105 0.25636,-1.794494 -0.007,0.284507 0.25832,-0.774948 0.11354,-0.454142 0,-1.080373 0,-1.549895 0,-0.314688 0.1129,-0.920361 -0.12916,-1.16242 -0.0963,-0.09627 0.0591,0.270732 0.12916,0.387474 0.19438,0.323961 0.66289,0.826238 0.77495,1.16242 0.30239,0.907164 -0.27471,-0.218323 0.12915,0.387475 0.41155,0.617315 0.55331,0.438954 1.42074,0.129156 0.51285,-0.18316 1.10676,-0.200102 1.5499,-0.516631 0.19818,-0.141557 0.33172,-0.358137 0.51663,-0.51663 0.23572,-0.202044 0.55542,-0.297106 0.77494,-0.516634 0.38696,-0.386956 0.71307,-1.040455 0.90411,-1.549895 0.0795,-0.212113 0.51097,-1.931701 0.64579,-2.066525 0.0997,-0.09972 0.46562,0.02713 0.51663,0.129159 0.13771,0.275407 0.29453,1.973585 0.38747,2.066525 0.0199,0.01987 1.44206,0 1.5499,0 0.1,0 0.825193,0.06936 1.033263,0 0.0913,-0.03044 0.16336,-0.113331 0.25832,-0.129159 0.29727,-0.04954 0.60684,0.04955 0.9041,0 0.422,-0.07033 0.72531,-0.325027 1.16242,-0.387471 0.28684,-0.04098 0.77164,0.0016 1.03327,-0.129159 0.38006,-0.190029 0.28764,-0.625203 0.38747,-0.774946 0.1068,-0.160203 0.40983,-0.09812 0.51663,-0.258316 0.0336,-0.05044 -0.0847,-0.387474 0.12916,-0.387474 0.12916,0 -0.0143,0.259106 0,0.387474 0.0336,0.302565 0.0695,0.605589 0.12916,0.904105 0.18072,0.903605 0.25831,1.635342 0.25831,2.583157 0,0.06565 0.1528,0.492992 0.12916,0.51663 -0.12527,0.12527 -0.85767,-0.0439 -1.03326,0 -0.84322,0.210807 0.48798,0.06936 -0.64579,0.258318 -0.1274,0.02125 -0.26494,-0.04084 -0.38747,0 -0.0408,0.01363 0.0304,0.09871 0,0.129157 -0.0281,0.02814 -0.81374,-0.03879 -0.38748,0.387474 0.0609,0.06089 0.1813,-0.03851 0.25832,0 0.0385,0.01926 -0.0304,0.09872 0,0.129156 0.15068,0.150686 0.75342,-0.150683 0.9041,0 0.0681,0.06807 0.0491,0.204917 0.12916,0.258318 0.12916,0.0861 0.25832,-0.04305 0.38747,0 0.18266,0.06089 0.32985,0.211617 0.51664,0.258316 0.59938,0.149844 1.4647,0 2.06652,0 0.8337,0 1.7528,0.103793 2.58316,0 0.39439,-0.0493 0.93602,-0.209693 1.29158,-0.387475 0.27082,-0.135408 0.17502,-0.402759 0.51663,-0.51663 0.26811,-0.08937 0.41888,-0.387475 0.38747,-0.387475 -0.23184,0 0.19463,0.422865 0.25832,0.64579 0,0.73452 -0.0578,0.08503 0.12916,0.64579 0.25061,0.751834 0.2625,2.441448 0,3.228946 -0.28495,0.854826 -1.02038,0.638058 -1.67906,1.033264 -0.10441,0.06265 -0.1494,0.203858 -0.25831,0.258315 -0.24213,0.121068 -0.50596,0.06191 -0.77495,0.129159 -0.28018,0.07005 -0.50453,0.286065 -0.77495,0.387472 -0.1662,0.06233 -0.35786,0.04977 -0.51663,0.129159 -0.40996,0.20498 -0.61626,0.765706 -0.77494,1.16242 -0.44966,1.124133 -0.24519,2.326928 -0.12916,3.487259 0.0233,0.23318 -0.0995,1.0629 0.12916,1.29158 0.0304,0.0304 0.0987,-0.0304 0.12915,0 0.0304,0.0304 -0.0358,0.10528 0,0.12916 0.50186,0.33457 2.63579,0.0909 2.97063,0.25832 0.0385,0.0193 0.0221,0.0922 0,0.12916 -0.32923,0.54871 -0.63184,0.76797 -1.16242,1.03326 -0.15348,0.0767 -0.48427,0.78297 -0.64579,0.9041 -0.10891,0.0817 -0.2657,0.0683 -0.38747,0.12916 -0.52999,0.26499 -0.99997,0.81329 -1.54989,1.03326 -0.12641,0.0506 -0.25398,0.10246 -0.38748,0.12916 -0.0844,0.0169 -0.18667,-0.0478 -0.25831,0 -0.0801,0.0534 -0.0466,0.20879 -0.12916,0.25832 -0.15222,0.0913 -0.35347,0.0592 -0.51663,0.12916 -0.48812,0.20919 -1.0467,0.54349 -1.29158,1.03326 -0.0607,0.12149 -0.0371,0.79289 0,0.9041 0.0681,0.20422 0.36442,0.23526 0.51663,0.38748 0.10976,0.10976 0.13907,0.2881 0.25832,0.38747 0.14791,0.12326 0.35153,0.15926 0.51663,0.25832 0.14504,0.087 1.2226,1.342959 1.29158,1.549889 0.0905,0.27156 0.0452,0.89139 0,1.16242 -0.16698,1.00184 -1.60907,2.35866 -2.454,2.84148 -0.0748,0.0427 -0.17837,-0.032 -0.25832,0 -0.483,0.19319 -0.39344,0.27399 -0.9041,0.38747 -0.38058,0.0846 -0.79257,0.006 -1.16243,0.12916 -0.14726,0.0491 -0.23821,0.21567 -0.38747,0.25831 -0.67458,0.19274 -1.71013,-0.0891 -2.583163,0.12916 -0.12916,0.0323 -0.25831,-0.0646 -0.38747,0 -0.0385,0.0193 0.0304,0.0987 0,0.12916 -0.13223,0.13222 -1.8848,-0.10363 -2.19568,0 -0.14262,0.0475 -0.39111,0.22693 -0.51664,0.25831 -0.1253,0.0313 -0.26217,-0.0313 -0.38747,0 -0.0591,0.0148 -0.0747,0.10193 -0.12916,0.12916 -0.0385,0.0193 -0.0987,-0.0304 -0.12916,0 -0.0304,0.0304 0.0422,0.12072 0,0.12916 -0.21108,0.0422 -0.43052,0 -0.64579,0 z"
       id="path43" />
    <path
       style="opacity:0.65;fill:#ff00ff;stroke:#ff00ff;stroke-width:0.264583;stroke-opacity:1"
       d="m 82.144407,81.627778 c 0.21527,0 0.43881,0.05914 0.64579,0 0.47425,-0.135498 0.19274,-0.190727 0.25832,-0.387472 0.0491,-0.147264 0.22787,-0.235259 0.25831,-0.387474 0.15266,-0.763283 -0.0276,-2.149237 -0.25831,-2.841474 -0.0193,-0.05776 -0.0861,-0.0861 -0.12916,-0.129156 -0.043,-0.08611 -0.10581,-0.164923 -0.12916,-0.258316 -0.0209,-0.08354 0.0385,-0.181303 0,-0.258318 -0.0193,-0.03851 -0.1099,0.03851 -0.12916,0 -0.077,-0.15403 0.077,-0.362601 0,-0.516631 -0.0545,-0.108915 -0.20385,-0.149399 -0.25831,-0.258315 -0.0697,-0.139311 0.0379,-0.494046 0,-0.64579 -0.0382,-0.152905 -0.1672,-0.812987 -0.25832,-0.904105 -0.0304,-0.03044 -0.0987,0.03044 -0.12915,0 -0.0304,-0.03044 0.0304,-0.09872 0,-0.129159 -0.0681,-0.06807 -0.10581,0.164923 -0.12916,0.258318 -0.10586,0.423445 -0.21534,0.55983 -0.38748,0.904105 -0.0689,0.137748 0,0.653188 0,0.774946 0,0.430528 0,0.861053 0,1.29158 0,0.250306 0.0296,0.317577 0.12916,0.516631 0.085,0.170092 -0.0604,0.464521 0,0.645789 0.19005,0.57013 0.12916,-0.469251 0.12916,0.387475 0,0.302897 -0.0304,-0.06089 0.12916,0.258315 0.11951,0.239025 -0.0849,0.64952 0,0.904105 0.0304,0.09133 0.0861,0.172209 0.12916,0.258315 0.0431,0.172212 0.0861,0.344422 0.12915,0.516631 z"
       id="path44" />
    <path
       style="opacity:0.65;fill:#f9f9f9;stroke:#ff00ff;stroke-width:0.264583;stroke-opacity:1"
       d="m 95.189357,102.93883 c 0.34651,0.2772 0.58457,0.5897 1.03326,0.64579 0.63432,0.0793 2.04075,0.14849 2.58316,-0.25832 0.077,-0.0578 0.0521,-0.20055 0.12916,-0.25831 0.10891,-0.0817 0.27419,-0.0536 0.38747,-0.12916 1.354293,-0.90286 1.162423,-3.471369 1.162423,-4.907999 0,-0.0508 -0.0812,-1.00003 0,-1.16242 0.087,-0.17392 1.07298,-1.34787 1.29158,-1.42074 0.0817,-0.0272 0.17388,0.0169 0.25832,0 0.51561,-0.10312 1.5628,-0.67161 1.80821,-1.16242 0.57901,-1.15802 -0.38748,-2.43186 -0.38748,-3.61642 0,-0.21526 -0.0848,-0.44793 0,-0.645789 0.0989,-0.230741 0.28552,-0.416388 0.38748,-0.64579 0.0721,-0.162211 0.0411,-0.362508 0.12915,-0.516631 0.0906,-0.158591 0.29686,-0.228883 0.38748,-0.387474 0.0881,-0.154123 0.0307,-0.368935 0.12916,-0.516631 0.0861,-0.129159 0.2905,-0.137104 0.38747,-0.258315 0.1701,-0.212622 0.15719,-0.522134 0.25832,-0.774949 0.17905,-0.447635 0.81113,-0.960893 0.51663,-1.549895 -0.30956,-0.619125 -0.16172,-0.253817 -0.77495,-0.51663 -1.03944,-0.445474 0.506,-0.14587 -1.16242,-0.516631 -0.12608,-0.02802 -0.26007,0.02122 -0.38747,0 -0.26859,-0.04476 -0.50637,-0.213553 -0.77495,-0.258318 -0.1274,-0.02122 -0.26329,0.03548 -0.38748,0 -0.18512,-0.05289 -0.32867,-0.216548 -0.51663,-0.258315 -0.21013,-0.0467 -0.43565,0.0467 -0.64579,0 -0.66122,-0.146939 -0.98836,-0.623338 -1.549893,-0.904106 -0.12177,-0.06088 -0.25832,-0.08611 -0.38748,-0.129156 -0.1722,-0.129159 -0.32409,-0.291206 -0.51663,-0.387474 -0.329,-0.164505 -0.70425,-0.22297 -1.03326,-0.387475 -0.10891,-0.05446 -0.14525,-0.21309 -0.25832,-0.258315 -0.11992,-0.04797 -0.26082,0.02532 -0.38747,0 -0.0944,-0.01889 -0.16492,-0.105809 -0.25831,-0.129159 -0.85632,-0.214077 -0.72993,0.385112 -1.16243,0.904105 -0.0994,0.119251 -0.30136,0.129159 -0.38747,0.258318 -0.18187,0.272812 -0.24084,0.610841 -0.38747,0.904105 -0.0694,0.13884 -0.20067,0.243348 -0.25832,0.387472 -0.032,0.07995 0.032,0.178369 0,0.258318 -0.1153,0.28825 -0.39433,0.48959 -0.51663,0.774946 -0.1449,0.3381 -0.27115,0.684297 -0.38747,1.033264 -0.29758,0.313081 -0.045,0.696524 -0.12916,1.033261 -0.0376,0.150596 -0.20923,0.240213 -0.25832,0.387475 -0.0841,0.252256 -0.0984,0.535045 -0.25831,0.774946 -0.26831,0.40246 -0.88174,0.578683 -1.03327,1.033264 -0.0272,0.08169 0.0385,0.1813 0,0.258315 -0.12328,0.246568 -0.44977,0.378349 -0.51663,0.645794 -0.0313,0.1253 0.0183,0.25961 0,0.38747 0.0122,0.32704 -0.20678,0.59494 -0.25831,0.90411 -0.13031,0.78183 -0.20202,1.65256 -0.12916,2.454 0.14414,1.58552 1.15144,2.81128 1.67905,4.26221 0.0861,0.30136 0.17221,0.60273 0.25832,0.9041 0,0.0861 -0.0169,0.17388 0,0.25832 0.0792,0.39578 0.32115,0.764489 0.38747,1.162419 0.0547,0.32841 -0.0807,0.71065 0,1.03326 0.1239,0.49561 0.32678,0.78271 0.51663,1.16242 0.0193,0.0385 -0.0408,0.11554 0,0.12916 0.12253,0.0408 0.26217,-0.0313 0.38748,0 0.0591,0.0148 0.0714,0.1099 0.12915,0.12916 0.4029,0.13429 0.49885,0.0735 0.90411,-0.12916 z"
       id="path45" />
  </g>
  <g
     inkscape:groupmode="layer"
     id="layer2"
     inkscape:label="online"
     style="display:inline;fill:#f9f9f9">
    <ellipse
       style="opacity:0.8;fill:#f2f2f2;stroke:#000000;stroke-width:0.264583;stroke-opacity:1"
       id="path1"
       cx="100.06813"
       cy="89.914635"
       rx="16.073801"
       ry="15.708487" />
    <circle
       style="opacity:0.8;fill:#784421;stroke:#784421;stroke-width:0.264583;stroke-opacity:1"
       id="path2"
       cx="100.06813"
       cy="90.279938"
       r="9.1328411" />
    <ellipse
       style="opacity:0.8;fill:#000000;stroke:#000000;stroke-width:0.264583;stroke-opacity:1"
       id="path3"
       cx="99.885483"
       cy="90.645248"
       rx="3.1051662"
       ry="3.287823" />
    <circle
       style="opacity:0.8;fill:#f9f9f9;stroke:#f9f9f9;stroke-width:0.264583;stroke-opacity:1"
       id="path4"
       cx="107.00909"
       cy="83.338982"
       r="4.3837638" />
    <path
       style="fill:#000000;stroke:#000000;stroke-width:0.264583;stroke-opacity:1"
       id="path33"
       d="m 122.28701,101.05657 c -0.0473,-1.361579 -0.03,-2.718899 0.0731,-4.076909 0.13986,-1.36009 0.5144,-2.67491 0.84971,-3.99515 0.29664,-1.19623 0.43397,-2.41856 0.49714,-3.64661 0.0435,-1.00843 0.0395,-2.01805 0.0413,-3.02719 0.005,-1.99076 0.32998,-1.24847 -3.52601,-2.44229 -0.14788,-0.0458 0.0228,0.30899 0.0447,0.46225 0.0278,0.1953 0.0694,0.38839 0.10412,0.58259 0.41188,1.55692 0.82509,3.11272 1.19492,4.68087 0.36115,1.37305 0.81897,2.72406 1.33503,4.0467 0.44769,1.14014 0.93406,2.26704 1.32248,3.42933 0.26595,0.88144 0.61647,1.72466 1.06797,2.52634 0.30482,0.549499 0.7137,1.024669 1.13145,1.489249 1.30991,1.38397 3.05208,2.05529 4.72963,2.99407 0.56835,-0.49033 0.48534,-1.10834 0.41884,-1.79929 -0.0617,-0.64108 -0.13926,-1.28054 -0.20568,-1.92114 -0.19755,-1.881829 -0.56686,-3.738089 -0.82094,-5.611879 -0.22138,-1.16377 -0.40851,-2.33306 -0.62291,-3.49807 -0.25081,-1.35356 -0.25626,-2.73257 -0.36467,-4.1002 -0.0218,-0.20029 -0.0436,-0.40058 -0.0654,-0.60086 0,0 -3.5137,-1.73779 -3.5137,-1.73779 v 0 c 0.0261,0.19853 0.0521,0.39706 0.0782,0.59559 0.1471,1.37157 0.10748,2.76048 0.33985,4.12518 0.20541,1.16794 0.38912,2.33983 0.65448,3.49633 0.26824,1.87329 0.64924,3.72809 0.85511,5.61042 0.0563,0.63191 0.11725,1.26339 0.17088,1.895519 0.0129,0.15215 0.0783,0.75411 0.043,0.99643 -0.0327,0.22408 -0.0456,0.1774 -0.0976,0.10435 6.32462,3.68977 3.08097,2.07764 2.06523,0.9634 -0.46608,-0.39452 -0.85119,-0.89896 -1.18451,-1.40746 -0.51212,-0.74731 -0.8391,-1.591309 -1.12424,-2.447289 -0.37267,-1.18097 -0.87888,-2.31307 -1.33383,-3.46396 -0.53774,-1.30152 -0.95872,-2.65207 -1.36931,-3.99742 -0.36225,-1.55808 -0.77053,-3.10429 -1.17628,-4.65082 -0.0343,-0.18171 -0.0755,-0.36227 -0.10294,-0.54515 -0.0206,-0.13757 0.0732,-0.33615 -0.0412,-0.4153 -4.1179,-2.84894 -3.50886,-3.19727 -3.51674,-1.14735 0.006,1.00536 0.0107,2.01101 -0.0199,3.01606 -0.0538,1.20502 -0.1593,2.40909 -0.44693,3.58433 -0.34004,1.3418 -0.72412,2.67593 -0.87197,4.05761 -0.11597,1.35933 -0.13002,2.71673 -0.13492,4.08064 z" />
    <path
       style="fill:#000000;stroke:#000000;stroke-width:0.264583;stroke-opacity:1"
       id="path34"
       d="m 129.75663,84.274431 c 0.1827,1.27653 0.252,2.56552 0.3018,3.85296 -0.0128,1.03069 0.11924,2.05143 0.29361,3.065 0.23929,1.0494 0.64888,2.04631 0.92736,3.08459 0.24538,0.89291 0.54707,1.76814 0.87073,2.6352 0.34207,0.86258 0.66108,1.73425 1.00343,2.59654 0.34785,0.770319 0.7553,1.514759 1.04347,2.310319 0.50157,1.61676 0.24831,0.77127 3.73714,2.08749 0.0275,0.0104 0.0764,-0.8776 0.0775,-0.91993 -0.0264,-0.84315 0.0742,-1.09301 0.6001,-1.71563 1.13225,-0.82524 2.47532,-1.273329 3.75366,-1.815679 0.19797,-0.072 0.39594,-0.14404 0.59391,-0.21606 0,0 -3.24808,-2.18611 -3.24808,-2.18611 v 0 c -0.20019,0.0775 -0.40037,0.15492 -0.60056,0.23237 -1.32806,0.56968 -2.72129,1.06174 -3.87833,1.94937 -0.56486,0.64587 -0.77544,1.067699 -0.7416,1.947929 -0.004,0.20049 -0.0482,0.78369 -0.0352,0.79169 5.01442,3.08297 3.826,3.0364 3.31587,1.52264 -0.25352,-0.81938 -0.66778,-1.56915 -1.02977,-2.34271 -0.39942,-0.83184 -0.65319,-1.732469 -1.0199,-2.580089 -0.31969,-0.85934 -0.63397,-1.71895 -0.89101,-2.60009 -0.26136,-1.03895 -0.6604,-2.03132 -0.94957,-3.0623 -0.18825,-0.99547 -0.31056,-2.00545 -0.32093,-3.01904 -0.0601,-1.29093 -0.14404,-2.58044 -0.25924,-3.86769 z" />
    <path
       style="fill:#000000;stroke:#000000;stroke-width:0.264583;stroke-opacity:1"
       id="path35"
       d="m 141.77796,87.491291 c 1.14215,0.14929 2.29275,0.20601 3.44272,0.25362 1.09165,0.13734 2.12314,-0.0488 3.18598,-0.26495 1.38682,-0.19465 2.74776,-0.56292 4.01666,-1.15702 0.14751,-0.0714 0.29501,-0.14276 0.44252,-0.21414 0,0 -3.28574,-2.16617 -3.28574,-2.16617 v 0 c -0.1431,0.0707 -0.28619,0.14129 -0.42929,0.21194 -1.2564,0.56765 -2.59113,0.90094 -3.95643,1.08503 -1.0432,0.196 -2.07402,0.28582 -3.13638,0.1869 -1.15376,-0.0503 -2.30829,-0.12173 -3.44955,-0.30742 z" />
    <path
       style="fill:#000000;stroke:#000000;stroke-width:0.264583;stroke-opacity:1"
       id="path36"
       d="m 145.0998,86.831631 c 0.25354,1.82268 0.45245,3.65041 0.58364,5.48589 0.14667,1.28417 0.25863,2.57444 0.50917,3.84345 0.19501,0.8831 0.49192,1.69991 0.45048,2.61308 -0.24709,0.82297 -0.0948,0.40093 -0.4702,1.261209 0,0 3.39701,1.91563 3.39701,1.91563 v 0 c 0.42256,-0.9153 0.2376,-0.45908 0.56055,-1.36637 0.11515,-1.104509 -0.12731,-1.672219 -0.39545,-2.709659 -0.2787,-1.2612 -0.41375,-2.54347 -0.58398,-3.82334 -0.1454,-1.82564 -0.35367,-3.64505 -0.50686,-5.46912 z" />
    <path
       style="fill:#000000;stroke:#000000;stroke-width:0.264583;stroke-opacity:1"
       id="path37"
       d="m 145.84433,103.73135 c 1.67306,-0.37181 3.39805,-0.45559 5.10535,-0.54564 1.25666,-0.0619 2.51495,-0.0673 3.77281,-0.065 0.93745,-0.009 1.87488,-0.009 2.81236,-0.007 0,0 -3.1569,-2.29419 -3.1569,-2.29419 v 0 c -0.9463,5.3e-4 -1.89255,-0.003 -2.83882,-0.0102 -1.25035,0.0113 -2.50156,0.0288 -3.7497,0.10906 -1.74175,0.11861 -3.49838,0.22093 -5.21045,0.57642 z" />
    <path
       style="fill:#000000;stroke:#000000;stroke-width:0.264583;stroke-opacity:1"
       id="path38"
       d="m 160.20825,100.97261 c -0.35154,-1.667389 -0.73426,-3.327999 -1.11431,-4.989139 -0.359,-1.31361 -0.5317,-2.65662 -0.61453,-4.01214 -0.0538,-1.27077 -0.0547,-2.54309 -0.0487,-3.81476 0.006,-0.47523 0.002,-0.95057 0.0167,-1.42566 0.002,-0.0734 0.0682,-0.26472 0.01,-0.22004 -0.0902,0.0692 -0.0288,0.36027 -0.13269,0.31413 -1.15211,-0.51166 -2.20258,-1.22689 -3.30387,-1.84034 0.58553,1.11077 1.13361,2.2419 1.6637,3.38032 0.69668,1.54048 1.46212,3.03146 2.32347,4.48512 0.57972,0.98212 1.13527,1.97856 1.69398,2.9732 0.43391,0.8341 0.73319,1.7272 1.15245,2.56967 0.32489,0.57193 0.66266,1.146 1.05207,1.677139 1.57986,2.15226 0.59076,1.11159 4.54651,3.19413 0.5427,-0.98099 0.44574,-2.18083 0.47141,-3.270309 0.0102,-1.60061 0.0355,-3.20223 -0.0367,-4.80158 -0.0707,-1.46613 -0.3734,-2.90856 -0.73163,-4.32801 -0.36208,-1.28507 -0.99298,-2.47082 -1.58401,-3.66141 -0.3167,-0.65543 -0.15667,-0.34071 -0.47786,-0.9453 0,0 -3.59302,-1.60319 -3.59302,-1.60319 v 0 c 0.35173,0.58262 0.18249,0.27201 0.50072,0.93563 0.60319,1.1652 1.21673,2.34139 1.62652,3.59031 0.38615,1.39358 0.6746,2.82265 0.78687,4.26578 0.0966,1.58611 0.0331,3.17679 0.0303,4.76515 -0.0204,0.91593 -0.0138,1.850099 -0.23445,2.744799 4.47363,2.6125 3.60648,2.62626 2.33652,0.66912 -0.43151,-0.49036 -0.73845,-1.07497 -1.09479,-1.61904 -0.48435,-0.816659 -0.75518,-1.726009 -1.15847,-2.579799 -0.5707,-1.00043 -1.13265,-2.00311 -1.71906,-2.99381 -0.40378,-0.67461 -0.86202,-1.33424 -1.21619,-2.03671 -0.39967,-0.79269 -0.69694,-1.63989 -1.1342,-2.41548 -0.51666,-1.13343 -1.07902,-2.24697 -1.56908,-3.39073 -4.02027,-2.49278 -3.73813,-3.22074 -3.71806,-0.21326 0.003,1.2801 -0.007,2.56083 0.0498,3.84004 0.0688,1.37982 0.2082,2.75122 0.6013,4.08272 0.40276,1.64058 0.78946,3.29273 1.06471,4.95911 z" />
    <path
       style="fill:#000000;stroke:#000000;stroke-width:0.264583;stroke-opacity:1"
       id="path39"
       d="m 176.29643,85.099581 c -1.42185,0.0298 -2.84417,0.0139 -4.26622,0.0116 -0.72226,0.0439 -1.72824,-0.20311 -2.30484,0.39159 -0.093,0.096 -0.15082,0.22067 -0.22623,0.331 -0.38418,1.08567 -0.32624,2.28277 -0.32786,3.42107 0.003,1.24832 0.012,2.49659 0.0115,3.74492 0.001,1.00756 0.005,2.01508 0.002,3.02265 0.0119,0.99097 -0.029,1.9829 0.0366,2.97223 0.0927,0.90223 0.19653,1.816189 0.60147,2.637529 1.35112,1.58087 3.57066,2.75386 5.68479,2.54558 0.6906,-0.0769 1.34001,-0.24637 1.83187,-0.75538 0.48403,-0.37745 0.89451,-0.77209 1.24765,-1.27827 0.36039,-0.81855 1.03544,-1.30128 1.78043,-1.74857 0,0 -3.3079,-2.132539 -3.3079,-2.132539 v 0 c -0.76416,0.49222 -1.48999,1.02175 -1.87974,1.871339 -0.34571,0.47907 -0.77116,0.82942 -1.21733,1.21143 -0.45524,0.40206 -1.07384,0.47794 -1.65991,0.52751 -0.41811,-0.002 -0.83115,-0.0284 -1.23638,-0.14476 -0.13047,-0.0375 -0.49656,-0.21449 -0.38148,-0.14251 1.58448,0.99114 4.2304,2.47521 2.75341,1.64505 -0.53631,-0.70652 -0.58063,-1.62879 -0.69493,-2.48137 -0.11145,-0.974739 -0.0239,-1.960529 -0.0509,-2.940189 -0.004,-1.00937 -7.9e-4,-2.01875 -0.009,-3.02809 -0.0131,-1.24954 -0.0249,-2.49909 -0.0272,-3.74871 0.008,-1.06008 -0.0506,-2.16429 0.25163,-3.18968 0.49935,-0.67629 1.56734,-0.36937 2.28854,-0.43119 1.4327,-0.002 2.86564,-0.018 4.29816,0.0116 z" />
    <path
       style="display:inline;fill:#000000;stroke:#000000;stroke-width:0.264583;stroke-opacity:1"
       id="path40"
       d="m 172.8878,95.460311 c 1.22012,-0.0735 2.4278,0.0456 3.63928,0.17067 0.81726,0.0671 1.59584,0.31241 2.41064,0.40667 0,0 -3.14786,-2.35505 -3.14786,-2.35505 v 0 c -0.80266,-0.13346 -1.59303,-0.34565 -2.40934,-0.38594 -1.22885,-0.11858 -2.45579,-0.1862 -3.6912,-0.16019 z" />
  </g>
  <g
     inkscape:label="Layer 1"
     inkscape:groupmode="layer"
     id="layer1"
     style="display:inline">
    <text
       xml:space="preserve"
       transform="matrix(0.26458333,0,0,0.26458333,99.968197,18.340419)"
       id="text45"
       style="font-style:normal;font-variant:normal;font-weight:normal;font-stretch:normal;font-size:74.6667px;font-family:'High Tower Text';-inkscape-font-specification:'High Tower Text';font-variant-ligatures:normal;font-variant-caps:normal;font-variant-numeric:normal;font-variant-east-asian:normal;white-space:pre;shape-inside:url(#rect45);display:inline;opacity:1;fill:#000000;stroke:#ffffff;stroke-opacity:1"><tspan
         x="83.962891"
         y="234.4831"
         id="tspan1">deviaan</tspan></text>
  </g>
</svg>
