<?xml version="1.0" encoding="UTF-8" standalone="no"?>
<!-- Created with Inkscape (http://www.inkscape.org/) -->

<svg
   width="32mm"
   height="32mm"
   viewBox="0 0 32 32"
   version="1.1"
   id="svg1"
   inkscape:version="1.3.2 (091e20e, 2023-11-25, custom)"
   sodipodi:docname="favicon_original.svg"
   inkscape:export-filename="favicon.png"
   inkscape:export-xdpi="203.2"
   inkscape:export-ydpi="203.2"
   xmlns:inkscape="http://www.inkscape.org/namespaces/inkscape"
   xmlns:sodipodi="http://sodipodi.sourceforge.net/DTD/sodipodi-0.dtd"
   xmlns="http://www.w3.org/2000/svg"
   xmlns:svg="http://www.w3.org/2000/svg">
  <sodipodi:namedview
     id="namedview1"
     pagecolor="#ffffff"
     bordercolor="#000000"
     borderopacity="0.25"
     inkscape:showpageshadow="2"
     inkscape:pageopacity="0.0"
     inkscape:pagecheckerboard="0"
     inkscape:deskcolor="#d1d1d1"
     inkscape:document-units="mm"
     inkscape:zoom="4.0970529"
     inkscape:cx="89.454544"
     inkscape:cy="53.819173"
     inkscape:window-width="1920"
     inkscape:window-height="1009"
     inkscape:window-x="-8"
     inkscape:window-y="-8"
     inkscape:window-maximized="1"
     inkscape:current-layer="layer2" />
  <defs
     id="defs1" />
  <g
     inkscape:groupmode="layer"
     id="layer2"
     inkscape:label="Layer 2">
    <path
       style="fill:#000080;stroke:#000080;stroke-width:0.264583"
       d="m 10.849262,29.900049 c -0.07574,-0.06138 -0.551341,-0.01736 -0.645789,-0.06458 -0.128718,-0.06436 -0.137785,-0.09214 -0.3228953,-0.129156 -0.1182251,-0.02365 -0.8696024,0.0345 -0.9041051,0 -0.015221,-0.01521 0.020884,-0.05936 0,-0.06458 -0.1253016,-0.03133 -0.2621722,0.03133 -0.3874736,0 -0.1912387,-0.04781 -0.418066,-0.176744 -0.5812104,-0.258315 -0.1065964,-0.0533 -0.2790264,-0.01034 -0.3874738,-0.06458 -0.054458,-0.02723 -0.0747,-0.101928 -0.1291577,-0.129159 -0.054254,-0.02712 -0.2873949,-0.02908 -0.3228949,-0.06458 -0.015221,-0.01521 0.015221,-0.04936 0,-0.06458 -0.027061,-0.02706 -0.1545979,-0.04501 -0.1937366,-0.06458 -0.2955526,-0.147775 0.2740353,0.02676 -0.1937369,-0.129159 -0.040843,-0.01363 -0.09065,0.01926 -0.129158,0 C 6.5971727,28.83955 6.5731327,28.7714 6.5224728,28.737623 6.393136,28.651393 6.2617733,28.563824 6.1349992,28.479308 c -0.017912,-0.01193 -0.049357,0.01521 -0.064579,0 -0.015221,-0.01521 0.015221,-0.04936 0,-0.06458 C 5.9279178,28.272232 5.6460252,28.170245 5.4892098,28.091839 5.3344786,28.014472 5.2466724,27.80099 5.1017363,27.704364 c -0.0801,-0.0534 -0.1902437,-0.06108 -0.2583159,-0.129156 -0.022992,-0.02299 -0.062307,-0.191466 -0.064579,-0.193738 -0.030971,-0.03097 -0.2273448,-0.03361 -0.2583156,-0.06458 -0.068072,-0.06808 -0.061086,-0.190246 -0.129158,-0.258318 -0.030443,-0.03044 -0.1052766,0.03582 -0.1291579,0 -0.035822,-0.05373 0.028881,-0.135975 0,-0.193736 C 4.2274997,26.795417 4.1115257,26.800259 4.0684733,26.73568 4.0307135,26.67904 4.041654,26.598583 4.0038943,26.541944 3.9542182,26.467429 3.8598334,26.422721 3.8101574,26.348207 3.7293687,26.227024 3.6903588,26.071641 3.6164207,25.960734 3.5037815,25.791775 3.3011541,25.588516 3.2289469,25.444102 c -0.019254,-0.03851 0.010441,-0.08739 0,-0.129158 -0.021526,-0.06458 -0.043052,-0.129158 -0.064579,-0.193737 -0.021526,-0.02153 -0.053273,-0.03631 -0.064579,-0.06458 C 3.0160375,24.847249 3.0382882,24.61381 2.9706313,24.410839 2.8233301,23.968935 2.5308968,23.595949 2.3248418,23.183839 2.1751814,22.884518 2.0372534,22.553841 1.8727893,22.279734 1.6623431,21.928991 1.4514161,21.583095 1.2269998,21.246471 1.17634,21.170481 1.0621436,21.139376 1.033263,21.052734 c -0.013614,-0.04084 0.013614,-0.08831 0,-0.129158 -0.00963,-0.02888 -0.0509645,-0.03735 -0.0645789,-0.06458 -0.0511337,-0.102268 -0.0780243,-0.285207 -0.12915789,-0.387474 -0.0244607,-0.04892 -0.25564128,-0.452053 -0.25831574,-0.452053 -0.0680722,0 0.0164446,0.145603 0.0645789,0.193737 0.0152215,0.01522 0.0430526,0 0.0645789,0 0.0430526,0.04305 0.0926265,0.08045 0.12915788,0.129158 0.0653406,0.08712 0.11723762,0.246395 0.19373675,0.322895 0.1172865,0.117286 0.279225,0.160521 0.3874737,0.322894 0.066808,0.100212 -0.1097023,0.04202 0.064579,0.129158 0.1433917,0.0717 0.3193544,0.09421 0.4520526,0.193737 0.048708,0.03653 0.0747,0.101929 0.1291579,0.129158 0.038507,0.01925 0.088315,-0.01361 0.1291578,0 0.057752,0.01925 0.2280176,0.13314 0.2583158,0.193737 0.00963,0.01925 -0.015221,0.04936 0,0.06458 0.045664,0.04566 0.1324719,-0.02042 0.1937367,0 0.028881,0.0096 0.034136,0.06458 0.064579,0.06458 0.021526,0 0,-0.04305 0,-0.06458 0,-0.08611 0,-0.172211 0,-0.258316 0,-0.129158 0,-0.258316 0,-0.387474 0,-0.159584 0.038152,-0.364023 0,-0.516631 C 2.6881508,20.439444 2.5533023,20.282655 2.5185786,20.213208 2.4003641,19.976779 2.3216901,19.68397 2.2602629,19.438261 2.2280086,19.309244 2.1195833,19.221481 2.0665261,19.115366 1.9826932,18.9477 2.0343391,18.92245 2.0019471,18.663314 1.9750623,18.448235 1.8099945,18.281192 1.7436314,18.082103 c -0.028421,-0.08526 0,-0.233684 0,-0.322895 0,-0.253291 -0.031248,-0.524961 0,-0.774947 0.046368,-0.370944 0.1472846,-0.726224 0.1937368,-1.097842 0.022707,-0.181657 0.044071,-1.482259 0,-1.614473 -0.00963,-0.02888 -0.043053,-0.04305 -0.064579,-0.06458 -0.021526,-0.06458 -0.049812,-0.127286 -0.064579,-0.193737 -0.071354,-0.321095 -0.1137674,-0.648806 -0.1937368,-0.968684 -0.03302,-0.13208 -0.1067759,-0.253182 -0.1291579,-0.387474 -0.059296,-0.355774 0.050996,-0.740872 0,-1.097842 -0.029048,-0.203334 -0.0309,-0.443717 -0.064579,-0.645789 -0.0299,-0.179398 -0.1593853,-0.344874 -0.1937369,-0.516632 -0.020698,-0.103492 0.020698,-0.219402 0,-0.322894 C 1.1601433,9.7400318 1.033263,9.378844 1.033263,9.0410516 c 0,-0.3672602 0.028881,-0.042516 -0.0645789,-0.3228949 -0.006807,-0.020421 -0.005221,-0.085463 0,-0.064579 0.0894329,0.3577315 0.1662257,0.4616093 0.3228947,0.7749471 0.082252,0.1645039 0.1024865,0.3569436 0.1937368,0.5166315 0.0534,0.09345 0.1403366,0.1648657 0.1937368,0.2583167 0.07231,0.126541 0.1214273,0.32551 0.1937369,0.452052 0.1436384,0.251367 0.2151159,0.505501 0.3228946,0.774947 0.017877,0.04469 0.043053,0.08611 0.064579,0.129158 0.043053,0.06458 0.098584,0.122398 0.1291579,0.193737 0.034962,0.08158 0.024886,0.178931 0.064579,0.258316 0.027229,0.05446 0.097833,0.07695 0.1291579,0.129158 0.020707,0.03451 0.3133642,0.607667 0.3228947,0.645789 0.010443,0.04177 -0.019254,0.09065 0,0.129158 0.00191,0.0038 0.2503385,0.008 0.2583156,0 0.048134,-0.04813 0.039298,-0.130534 0.064579,-0.193737 0.060886,-0.152214 0.1204209,-0.30542 0.1937369,-0.452053 0.073688,-0.147376 0.1454073,-0.177906 0.1937369,-0.322894 0.042839,-0.128516 0.025897,-1.317143 0,-1.420737 -0.04849,-0.19396 -0.1291579,-0.302642 -0.1291579,-0.516631 0,-0.1891249 -0.056007,-0.4777699 0,-0.6457901 C 3.5314596,9.2313555 3.6470701,9.1767699 3.6809994,9.0410516 3.7535657,8.750787 3.5209588,9.1028175 3.7455784,8.653578 3.9361438,8.2724473 4.2632852,7.9410593 4.4559468,7.5557361 c 0.1486575,-0.297315 0.00419,-0.085523 0.064579,-0.3874739 0.027342,-0.1367086 0.159879,-0.252042 0.1937369,-0.3874735 0.020884,-0.083534 -0.020884,-0.1747814 0,-0.2583159 0.021325,-0.085303 0.2242862,-0.5890736 0.2583156,-0.6457892 0.071421,-0.1190344 0.389418,-0.465746 0.5166315,-0.5166317 0.05996,-0.023985 0.1310862,0.015663 0.1937369,0 0.1791748,-0.044793 -0.00569,-0.058889 0.064579,-0.1291577 0.045664,-0.045664 0.1324718,0.020421 0.1937366,0 0.369148,-0.1230495 -0.3903998,-0.01233 0.1937369,-0.1291579 0.063325,-0.012666 0.129158,0 0.193737,0 C 6.5870518,5.015631 6.8469178,4.9340436 7.1036833,4.8434204 7.3046396,4.7724946 7.97386,4.4898751 8.1369465,4.3267889 8.6866901,3.777045 7.9524063,4.3637104 8.3952621,4.0684733 8.5250757,3.981931 8.4106371,4.0223453 8.4598411,3.8747363 8.4938771,3.7726281 8.598202,3.708714 8.653578,3.6164207 8.7494456,3.4566412 8.7539056,3.2554709 8.8473147,3.099789 8.87864,3.0475801 8.9538602,3.0271622 8.9764726,2.9706313 c 0.023985,-0.05996 -0.00913,-0.129807 0,-0.1937369 0.034527,-0.241691 0.070452,-0.4755436 0.1291579,-0.7103683 0.015663,-0.062651 0,-0.1291579 0,-0.1937368 0,-0.021526 0.021527,-0.064579 0,-0.064579 -0.021527,0 0,0.043053 0,0.064579 0,0.2152631 0,0.4305262 0,0.6457893 0,0.4284294 0.077759,1.4839941 0,1.8727892 -0.02568,0.1283968 -0.032822,0.2604437 -0.064579,0.3874736 -0.00738,0.029534 -0.053273,0.036313 -0.064579,0.064579 -0.012385,0.030965 -0.1817251,0.4565734 -0.1937369,0.5166315 0,0.3672604 0.028881,0.042516 -0.064579,0.3228948 -0.074178,0.2225336 -0.073035,0.3874736 -0.064579,0.3874736 0.018796,0 0.2776352,-0.2389188 0.3228946,-0.2583156 C 9.0580512,5.7771417 9.153988,5.7842527 9.2347881,5.7475257 9.5753088,5.5927436 10.090471,5.2179693 10.397209,4.9725783 10.535567,4.8618925 10.60557,4.6996389 10.720104,4.5851048 10.881149,4.4240595 11.163225,4.3774561 11.365893,4.3267889 11.518621,4.2886071 11.662026,4.1776007 11.817946,4.1330522 12.219314,4.0183757 13.2323,3.8927584 13.496998,3.6809994 c 0.07942,-0.063536 0.146879,-0.3583368 0.193737,-0.4520525 0.109253,-0.2185048 0.296771,-0.4516866 0.452053,-0.6457893 0.216935,-0.2711689 0.452503,-0.5405247 0.710368,-0.7749473 0.10199,-0.092718 0.208209,-0.1818583 0.322895,-0.2583158 0.01791,-0.011941 0.04936,0.015221 0.06458,0 0.02153,-0.021526 -0.03735,-0.050964 -0.06458,-0.064579 -0.04305,-0.021526 -0.02153,-0.1076316 -0.06458,-0.1291579 -0.03851,-0.019254 -0.08831,0.013614 -0.129158,0 -0.02888,-0.00963 -0.0357,-0.054952 -0.06458,-0.064579 -0.0842,-0.028067 -0.321075,-0.00182 -0.258316,-0.064579 0.140234,-0.1402337 0.552946,0.162789 0.64579,0.1937369 0.170677,0.056892 0.401096,0.077697 0.58121,0.1291578 0.170684,0.048767 0.307038,0.1453987 0.452053,0.1937369 0.04084,0.013614 0.09065,-0.019254 0.129158,0 0.01925,0.00963 0,0.043053 0,0.064579 0.04305,0.021526 0.08349,0.049358 0.129157,0.064579 0.224719,0.074906 0.113651,0.4004294 0.06458,0.6457893 -0.01689,0.084433 0.02723,0.1766291 0,0.2583158 -0.03559,0.1067676 -0.226091,0.2099799 -0.258315,0.2583159 -0.02388,0.035822 0.01361,0.088314 0,0.1291576 -0.04446,0.1333694 -0.348745,0.1420829 -0.452053,0.193737 -0.05446,0.027229 -0.0747,0.1019291 -0.129158,0.1291579 -0.09035,0.045177 -0.228451,0.017357 -0.322895,0.064579 -0.176717,0.088358 -0.261522,0.3261013 -0.387473,0.4520525 -0.254979,0.2549784 -0.44982,0.1922486 -0.64579,0.3228946 -0.09905,0.066035 -0.115655,0.5735047 0,0.6457894 0.08457,0.052857 0.629689,0.1729856 0.774948,0.1937369 0.189493,0.027071 0.391052,-0.02113 0.58121,0 0.31593,0.035103 1.447036,0.163444 1.743632,0.064579 0.09133,-0.030443 0.166987,-0.098715 0.258315,-0.1291579 0.06458,-0.021526 0.129158,0.043053 0.193737,0 0.04005,-0.0267 0.03054,-0.095122 0.06458,-0.129158 0.122301,-0.1223013 0.368515,-0.1196784 0.516632,-0.1937369 0.384689,-0.1923444 0.361128,-0.7868359 0.516631,-1.097842 0.02888,-0.057761 -0.01566,-0.1310859 0,-0.1937366 0.0574,-0.2296142 0.05023,-0.050228 0.193737,-0.1937369 0.252034,-0.2520344 -0.01495,-0.034682 0.06458,-0.1937369 0.04084,-0.081686 0.143077,-0.117747 0.193737,-0.1937367 0.08345,-0.1251722 0.129158,-0.2877433 0.129158,-0.4520526 0,-0.3993638 -0.154416,-0.6653045 -0.193737,-1.097842 -7.94e-4,-0.0087 0.05085,-0.50290186 -0.06458,-0.3874736 -0.105737,0.1057369 0.282324,0.4490138 0.322895,0.5166315 0.327301,0.5455029 -0.09297,-0.07098 0.06458,0.3228947 0.02882,0.072063 0.09858,0.1223981 0.129157,0.1937368 0.06578,0.1534857 0.07734,0.3611862 0.129158,0.5166315 0.109489,0.3284664 0.576125,1.6110827 0.774948,1.7436313 0.233725,0.1558168 0.50697,0.3627271 0.774947,0.4520528 0.208261,0.06942 0.444013,0.042682 0.645789,0.1291577 0.381912,0.1636768 -0.157375,0.125127 0.322895,0.1937369 0.06461,0.00923 0.722505,0.052442 0.774947,0 0.01522,-0.015221 -0.01925,-0.054952 0,-0.064579 0.08183,-0.040916 0.175968,-0.018963 0.322895,-0.1291579 0.140164,-0.1051227 0.199455,-0.2640338 0.322894,-0.3874736 0.140317,-0.1403165 0.552246,-0.4876662 0.64579,-0.5812105 0.545965,-0.5459655 -0.03724,-0.00872 0.258316,-0.4520525 0.05066,-0.07599 0.143077,-0.117747 0.193736,-0.1937369 0.178246,-0.2673683 -0.0284,-0.6251776 0.06458,-0.9041051 0.01522,-0.045664 0.0529,-0.082461 0.06458,-0.1291579 0.01673,-0.066897 0,-0.1842654 0,-0.2583157 0,-0.021526 0,-0.086105 0,-0.064579 0,0.5761779 -0.01266,-0.3330516 0.06458,0.5166315 0.0601,0.6611448 -0.06606,1.3413282 0,2.001947 0.01727,0.1727383 0.164501,1.4645907 0.06458,1.6144735 -0.03495,0.052422 -0.354965,0.1183219 -0.387473,0.1291579 -0.196956,0.065652 -0.372498,0.1639208 -0.581211,0.193737 -0.332481,0.047497 -0.923375,-0.1012085 -1.227,0 -0.02042,0.00681 0.0052,0.043695 0,0.064579 -0.01651,0.06604 -0.05339,0.1265907 -0.06458,0.1937367 -0.09378,0.5626949 0.06449,0.8394501 0.516632,1.2269999 0.107631,0.086105 0.215263,0.1722104 0.322895,0.2583158 0.06458,0 0.135975,-0.02888 0.193736,0 0.04305,0.021527 0.02153,0.1076315 0.06458,0.1291577 0.172202,0.086101 1.737646,-0.072094 1.937368,-0.1291577 0.06545,-0.018701 0,-0.1722106 0.06458,-0.1937369 0.07714,-0.025715 0.418272,-0.030797 0.452054,-0.064579 0.01521,-0.015221 -0.01193,-0.046668 0,-0.064579 0.147254,-0.220881 0.296574,-0.418546 0.387472,-0.6457894 0.05056,-0.1264068 0.09614,-0.2553941 0.129159,-0.3874736 0.01566,-0.062651 0,-0.2583156 0,-0.1937369 0,0.3455916 -0.01363,-0.1462654 0.06458,0.3228948 0.103518,0.6211205 -0.05702,1.310145 0,1.9373681 0.06337,0.697098 0.01278,-0.064926 0.193736,0.3874738 0.0302,0.075497 -0.0035,0.2548168 0.06458,0.3228946 0.04813,0.048134 0.129156,0.043053 0.193735,0.064579 0.174374,0.058124 0.469019,0 0.64579,0 1.06594,0 0.953196,0.1446453 1.614474,-0.5166315 0.164637,-0.1646359 0.245089,-0.3676333 0.387475,-0.5812105 -0.0065,-0.1279348 0.09512,-0.030543 0.129156,-0.064579 0.01521,-0.015221 0,-0.086105 0,-0.064579 0,0.2188024 0.07343,1.1725732 0,1.3561578 -0.0463,0.1157454 -0.162393,0.1975226 -0.193736,0.3228953 -0.06295,0.251788 -0.170249,0.416819 -0.322895,0.645789 -0.03776,0.05664 -0.01646,0.145603 -0.06458,0.193737 -0.01521,0.01522 -0.04936,-0.01522 -0.06458,0 -0.01521,0.01522 0.0096,0.04533 0,0.06458 -0.0303,0.0606 -0.200562,0.174486 -0.258315,0.193737 -0.153464,0.05115 -0.11729,-0.07645 -0.258315,0.06458 -0.03404,0.03404 -0.03054,0.09512 -0.06458,0.129157 -0.139197,0.139198 -0.289944,0.192414 -0.387474,0.387474 -0.266348,0.532701 -0.0042,1.049827 -0.129157,1.549895 -0.04777,0.191067 -0.154111,0.383082 -0.193735,0.58121 -0.0024,0.01209 -0.01865,0.445834 0,0.452053 0.202382,0.06746 1.042389,-0.0061 1.226999,-0.129158 0.253699,-0.169133 0.564608,-0.448001 0.710367,-0.710369 0.0825,-0.148498 -0.08456,-0.183748 0.06458,-0.258315 0.05217,-0.02609 0.1579,-0.02165 0.129159,0.06458 -0.136094,0.408279 -0.302438,0.801807 -0.387475,1.226999 -0.02901,0.145058 0.02434,0.306008 0,0.452053 -0.08293,0.497591 -0.138221,1.00494 -0.258315,1.485316 -0.07562,0.30249 0,0.725716 0,1.033263 0,0.470232 -0.02902,0.893824 -0.06458,1.356158 -0.02956,0.384223 0.03834,0.778995 0,1.16242 0.04169,0.192699 -0.104055,0.340906 -0.129159,0.516632 -0.05218,0.365256 -0.03109,0.729512 -0.06458,1.097842 -0.09762,1.073751 -0.0036,-0.240441 -0.193738,0.710368 -0.07027,0.351336 -0.05888,0.746455 -0.129156,1.097842 -0.01889,0.0944 -0.10581,0.164922 -0.129159,0.258316 -0.04462,0.178493 -0.04491,0.474509 -0.258316,0.58121 -0.06089,0.03044 0.03414,-0.132851 0.06458,-0.193737 0.127632,-0.255269 0.334645,-0.545991 0.58121,-0.710368 0.06458,-0.04305 0.100333,0.121674 0.129156,0.193737 0.225637,0.564089 0.126749,0.656631 0,1.227 -0.03531,0.158911 -0.01273,0.361053 -0.06458,0.516631 -0.119514,0.358538 -0.450016,0.718429 -0.774948,0.904105 -0.08359,0.04776 -0.184359,0.06753 -0.258316,0.129158 -0.05963,0.04969 -0.06855,0.145252 -0.129159,0.193736 -0.05315,0.04252 -0.137096,0.02682 -0.193735,0.06458 -0.07599,0.05066 -0.117748,0.143076 -0.193736,0.193736 -0.05664,0.03776 -0.140584,0.02207 -0.193739,0.06458 -0.06061,0.04848 -0.06707,0.14717 -0.129156,0.193739 -0.03444,0.02582 -0.09224,-0.02215 -0.129159,0 -0.131749,0.03043 -0.156996,0.190767 -0.258315,0.258315 -0.287338,0.191559 0.03184,-0.144928 -0.452054,0.258316 -0.03698,0.03081 -0.02606,0.100277 -0.06458,0.129156 -0.07702,0.05776 -0.172212,0.08611 -0.258318,0.129159 -0.06768,0.03384 -0.248163,0 -0.322894,0 -0.456612,0 -1.505497,-0.07852 -1.937368,0 -0.308372,0.05607 -0.597634,0.192643 -0.904105,0.258315 -0.148835,0.03189 -0.304383,0.02766 -0.452053,0.06458 -0.205842,0.05146 -0.824145,0.307514 -0.968684,0.452054 -0.05221,0.05221 -0.408957,0.624175 -0.452052,0.710366 -0.01925,0.03851 0.02388,0.09334 0,0.129159 -0.04083,0.06125 -0.572565,0.381421 -0.581211,0.387474 -0.484024,0.338815 -0.983715,0.655183 -1.485315,0.968682 -0.503123,0.314452 -1.288699,0.587381 -1.87279,0.64579 -0.149936,0.015 -0.309101,-0.04765 -0.452052,0 -0.02888,0.0096 -0.03735,0.05096 -0.06458,0.06458 -0.185679,0.09284 -1.159818,-0.03653 -1.356158,-0.06458 -0.484837,-0.06926 -1.089608,0.115073 -1.549895,0 -0.09339,-0.02334 -0.16983,-0.09124 -0.258315,-0.129156 -0.269763,-0.115615 -0.56374,-0.166389 -0.839526,-0.258318 -0.168402,-0.05613 -0.340207,-0.109554 -0.516632,-0.129157 -0.106973,-0.01188 -0.219404,0.02957 -0.322895,0 -0.132532,-0.03787 -0.194917,-0.207126 -0.322894,-0.258315 -0.03997,-0.01598 -0.09334,0.02389 -0.129158,0 -0.260561,-0.173707 0.182914,-0.107656 -0.193737,-0.258315 -0.119323,-0.04773 -0.265855,-0.02405 -0.387474,-0.06458 -0.05776,-0.01926 -0.0747,-0.101931 -0.129158,-0.129159 -0.230585,-0.115292 -0.54746,-0.364974 -0.774947,-0.516631"
       id="path8" />
    <path
       style="fill:#0000ff;stroke:#0000ff;stroke-width:0.264583"
       d="M 14.271946,30.222944 C 14.144922,29.561935 13.319296,29.437364 12.78663,29.254259 8.5911665,27.812068 13.426202,29.506571 10.784683,28.479313 10.440866,28.345606 10.083793,28.258026 9.75142,28.091839 9.724191,28.078209 9.708367,28.048789 9.686841,28.027259 9.622262,27.984206 9.5635748,27.930628 9.4931041,27.898103 9.2825979,27.800945 9.0451441,27.760681 8.8473147,27.639785 8.4856388,27.57366 8.4032121,27.171507 8.1369465,26.993998 8.0167958,26.913895 7.8732972,26.874554 7.7494727,26.800259 7.123717,26.424806 7.9315425,26.793989 7.1036833,26.348207 6.651839,26.104907 5.6728333,25.74677 5.4246308,25.250365 c -0.019254,-0.03851 0.010443,-0.08739 0,-0.129158 -0.023349,-0.09339 -0.110278,-0.163916 -0.1291576,-0.258315 -0.050747,-0.253734 -0.0063,-0.529233 -0.129158,-0.774948 -0.03471,-0.06942 -0.098584,-0.122398 -0.1291579,-0.193736 -0.034962,-0.08158 -0.018915,-0.182209 -0.064579,-0.258316 -0.024765,-0.04127 -0.095122,-0.03054 -0.1291579,-0.06458 C 4.7885389,23.516431 4.7691442,23.432458 4.7142627,23.377576 4.4187115,23.082025 3.6561921,22.770303 3.3581049,22.602629 3.2642958,22.549861 3.1932395,22.462292 3.099789,22.408892 c -0.022111,-0.01263 -0.3143853,-0.05607 -0.3228946,-0.06458 -0.015221,-0.01522 0.015221,-0.04936 0,-0.06458 -0.015221,-0.01522 -0.045325,0.0096 -0.064579,0 -0.054458,-0.02723 -0.0747,-0.101929 -0.1291578,-0.129158 -0.043053,-0.02153 -0.1766373,-0.07249 -0.1291579,-0.06458 0.4687047,0.07812 1.1198284,0.317399 1.6144736,0.193737 0.1136499,-0.02841 0.057352,-0.207725 0.064579,-0.258316 0.067743,-0.474198 0.064579,-0.936508 0.064579,-1.420736 0,-0.891912 -0.4530156,-1.682182 -0.7103684,-2.518579 -0.050037,-0.162622 -0.2304116,-0.644196 -0.2583159,-0.839526 -0.024355,-0.17048 0.041767,-0.349563 0,-0.516632 C 3.2008315,16.613484 3.1316355,16.514513 3.099789,16.403051 3.015748,16.108907 2.9900935,15.79309 2.9060523,15.498945 2.8796046,15.406381 2.7957743,15.335029 2.7768944,15.24063 2.6923965,14.81814 2.7820855,14.367663 2.7123154,13.949051 2.6778085,13.74201 2.5831576,13.591197 2.5831576,13.36784 c 0,-0.134222 -0.00443,-0.06901 -0.064579,-0.129157 -0.030443,-0.03044 0.043053,-0.129158 0,-0.129158 -0.021526,0 0,0.04305 0,0.06458 0,0.129157 -0.031325,0.262172 0,0.387473 0.052685,0.210739 0.2107122,0.342126 0.3228948,0.516632 0.2898237,0.450837 0.6428777,1.030351 1.0332629,1.420736 0.076107,0.07611 0.1894118,0.111052 0.2583159,0.193737 0.043579,0.0523 0.026819,0.137098 0.064579,0.193737 0.1076314,0.161447 0.2152629,0.179386 0.3228946,0.322895 0.057761,0.07701 0.043053,0.215263 0.1291579,0.258316 0.057761,0.02888 0.1291577,0 0.1937367,0 0.021526,0 0.052638,0.01791 0.064579,0 0.2477622,-0.371644 0.2574338,-0.930662 0.3228949,-1.356158 0.064659,-0.420282 0.032344,-0.807943 0.064579,-1.227 0.038943,-0.506258 0.1211363,-0.431388 0.064579,-0.968684 -0.2221418,-2.110348 -0.010713,0.620987 -0.3228946,-1.356158 -0.030216,-0.191366 0.012086,-0.387851 0,-0.58121 C 5.0165833,10.64924 4.8720925,9.9093839 4.9725783,9.5576831 4.9990261,9.4651186 5.0679341,9.3895065 5.1017363,9.2993672 5.1329002,9.2162631 5.126623,9.1204366 5.1663152,9.0410516 5.2144495,8.9447829 5.3119178,8.8790043 5.3600519,8.7827357 5.3997447,8.7033506 5.3753977,8.598269 5.4246308,8.5244201 5.4676836,8.4598411 5.5698826,8.4558686 5.6183677,8.3952621 5.7034165,8.2889512 5.6774799,8.1245312 5.7475257,8.0077886 5.778851,7.9555794 5.845358,7.9308395 5.8766836,7.8786306 6.0216465,7.6370258 6.0143164,7.415278 6.1995782,7.1682622 6.3332939,6.9899746 6.5282061,6.8367679 6.6516307,6.6516307 6.7529265,6.4996871 6.8753926,6.171063 6.9745256,6.0058413 7.0664432,5.8526454 7.2489075,5.7960384 7.3619991,5.6829467 c 0.06728,-0.067281 0.094783,-0.3187242 0.129158,-0.3874735 0.030443,-0.060886 0.064579,0.1256646 0.064579,0.1937366 0,0.3173415 0.094466,0.5918777 0.1291576,0.9041053 0.00951,0.085578 -0.016886,0.1738826 0,0.2583156 0.06074,0.3036972 0.2193333,0.5922436 0.2583159,0.9041054 0.033574,0.268592 0,0.5681135 0,0.839526 0,0.058959 -0.00204,0.9032867 0,0.9041051 0.3740658,0.1496264 1.1908965,0.2739945 1.5498945,0.064579 0.171428,-0.1 0.3052019,-0.2539731 0.4520525,-0.3874736 0.090103,-0.081912 0.1929404,-0.1555821 0.2583164,-0.2583159 0.08801,-0.1383093 0.111132,-0.3104449 0.193736,-0.4520525 0.06945,-0.1190593 0.1874,-0.2047015 0.258316,-0.3228946 0.141923,-0.2365388 0.235087,-0.6109459 0.387474,-0.8395263 0.05066,-0.07599 0.157761,-0.1097926 0.193736,-0.1937367 0.03392,-0.079143 -0.03851,-0.1813009 0,-0.2583159 0.03471,-0.06942 0.138856,-0.074276 0.193737,-0.1291579 0.141329,-0.1413288 0.246145,-0.3753025 0.387474,-0.5166315 0.03404,-0.034036 0.09512,-0.030543 0.129158,-0.064579 0.154272,-0.1542719 0.436821,-0.5108419 0.516631,-0.7103681 0.01599,-0.039973 -0.01044,-0.087391 0,-0.1291579 0.0098,-0.039147 0.28509,-0.4788266 0.322895,-0.5166315 0.106547,-0.106547 0.06458,0.3561373 0.06458,0.5166315 0,0.5396875 -0.01827,0.2596139 0.06458,0.839526 0.04004,0.280289 0.103524,0.5575546 0.129158,0.8395264 0.04545,0.4999463 0.08337,0.9506876 0.387473,1.3561578 0.02888,0.038507 0.04936,0.083493 0.06458,0.1291577 0.0068,0.020421 -0.02042,0.057772 0,0.064579 0.164835,0.054945 0.72514,0.078346 0.904105,0.064579 0.728712,-0.056055 1.320371,-0.354018 2.001948,-0.5812104 1.060215,-0.353405 -0.151631,0.070197 0.904105,-0.1937369 0.354931,-0.088733 0.638963,-0.3238275 0.968684,-0.4520526 0.317218,-0.1233625 0.685487,-0.1340964 0.968684,-0.3228946 0.120346,-0.080231 0.01655,-0.1622493 0.06458,-0.2583158 0.02723,-0.054458 0.101929,-0.0747 0.129158,-0.1291577 0.174418,-0.3488354 0.368837,-1.131793 0.904105,-0.7749474 0.133603,0.089068 0.584553,0.3704042 0.645789,0.4520525 0.04084,0.054458 0.02374,0.1392791 0.06458,0.193737 0.02888,0.038507 0.08611,0.043052 0.129158,0.064579 0.06458,0.086105 0.140337,0.1648653 0.193737,0.2583156 0.03377,0.059103 0.02956,0.1353654 0.06458,0.1937369 0.03133,0.052209 0.106546,0.072627 0.129158,0.129158 0.02398,0.05996 -0.02042,0.1324718 0,0.1937366 0.08056,0.2416683 0.289456,0.4653254 0.387473,0.7103684 0.06148,0.1536872 0.108913,0.375258 0.193737,0.5166315 0.03133,0.052209 0.09783,0.076949 0.129158,0.129158 0.07005,0.1167429 0.04747,0.2785581 0.129158,0.3874735 0.02888,0.038507 0.09512,0.030543 0.129158,0.064579 0.179653,0.1796529 0.328485,0.4155413 0.58121,0.5166315 0.107632,0.043053 0.208549,0.1101003 0.322895,0.1291579 0.127401,0.021233 0.260824,-0.025328 0.387474,0 0.06675,0.013351 0.127697,0.048069 0.193736,0.064579 0.102156,0.025538 1.701115,0.035698 1.808211,0 0.119865,-0.039955 0.263885,-0.1525408 0.387473,-0.1937369 0.103659,-0.034553 0.553209,-0.03086 0.64579,0 0.02043,0.00681 -0.01521,0.049357 0,0.064579 0.03404,0.034036 0.09512,0.030543 0.129159,0.064579 0.111958,0.1119606 0.387472,1.1516217 0.387472,1.3561577 0,0.04667 0.02122,0.323787 0,0.387473 -0.03227,0.09682 -0.151112,0.216336 -0.193736,0.322895 -0.151707,0.379266 -0.0013,0.0078 -0.06458,0.387474 -0.01905,0.114345 -0.112763,0.208137 -0.129156,0.322894 -0.06151,0.430527 0,0.922495 0,1.356158 0,0.05673 -0.06435,0.646023 0,0.710368 0.0576,0.0576 0.10228,-0.09668 0.129156,0.06458 0.07573,0.454388 -0.02798,0.33151 0.193739,0.774948 0.03969,0.07939 0.0019,0.195556 0.06458,0.258315 0.01688,0.01688 0.255907,-2.91e-4 0.258315,0 0.506198,0.06328 0.894186,0.139079 1.227,-0.193736 0.01521,-0.01522 0,-0.08611 0,-0.06458 0,0.363628 0.0155,0.437429 -0.129157,0.774947 -0.109153,0.254689 -0.198583,0.526324 -0.322894,0.774947 -0.03471,0.06942 -0.09858,0.122398 -0.129159,0.193737 -0.126852,0.29599 -0.128069,0.662242 -0.193736,0.968684 -0.03284,0.153235 -0.10972,0.296549 -0.129159,0.452053 -0.0046,0.03659 0.0041,1.024652 0,1.097842 -0.03553,0.639534 -0.128871,1.29443 -0.06458,1.937368 0.03258,0.325832 0.147648,0.646074 0.193736,0.968684 0.04975,0.348263 0.04252,0.822229 0,1.162421 -0.01688,0.135093 -0.109906,0.252697 -0.129159,0.387473 -0.01217,0.08524 0.02723,0.17663 0,0.258316 -0.06634,0.199014 -0.966491,0.612952 -1.097841,0.64579 -0.08353,0.02088 -0.172876,-0.01068 -0.258316,0 -0.08807,0.01101 -0.170103,0.05478 -0.258316,0.06458 -0.829413,0.09216 -1.687274,-0.07557 -2.518578,0 -0.437096,0.03974 -0.861016,0.186555 -1.291579,0.258315 -0.192277,0.03205 -0.392102,0.0173 -0.581211,0.06458 -0.159044,0.03976 -0.295362,0.145525 -0.452052,0.193737 -0.396968,0.122144 -0.836144,0.176324 -1.227,0.322895 -0.229017,0.08588 -0.127275,0.137845 -0.322895,0.193737 -0.105539,0.03015 -0.22297,0.01916 -0.322894,0.06458 -0.500382,0.227446 -0.884167,0.691042 -1.356158,0.968683 -0.903455,0.531444 -0.458087,0.04325 -1.162421,0.904105 -0.127961,0.156398 -0.0205,0.340307 -0.06458,0.516633 -0.05588,0.223504 -0.07688,0.505875 -0.193737,0.710367 -0.470338,0.823095 0.07058,-0.235024 -0.387473,0.452053 -0.0534,0.0801 -0.08611,0.17221 -0.129158,0.258316 -0.01925,0.03851 0.03044,0.09872 0,0.129159 -0.01522,0.01521 -0.04936,-0.01521 -0.06458,0 -0.119917,0.119917 -0.166479,0.283197 -0.322895,0.387472 -0.01073,0.0072 -1.327343,0.01442 -1.356158,0 -0.112267,-0.05613 -0.215263,-0.129157 -0.322894,-0.193736 z"
       id="path9" />
    <path
       style="fill:#00ffff;stroke:#00ffff;stroke-width:0.264583"
       d="m 4.2622099,18.534156 c 0,-0.23679 0,-0.473579 0,-0.710369 0,-0.147712 -0.081454,-1.325328 -0.1291577,-1.420736 -0.036444,-0.07289 -0.1856168,-0.180204 -0.1937369,-0.193737 -0.045664,-0.07611 -0.020545,-0.181255 -0.064579,-0.258316 -0.4853617,-0.849383 0.016632,0.345718 -0.2583156,-0.387474 -0.040703,-0.108542 -0.077316,-0.21921 -0.1291579,-0.322894 -0.027229,-0.05446 -0.1172173,-0.06945 -0.1291579,-0.129158 0,-0.490857 0.038507,-0.07821 -0.064579,-0.387474 -0.00503,-0.01509 0.019526,-0.361945 -0.064579,-0.193737 -0.048134,0.09627 -0.026104,0.218477 0,0.322895 0.00738,0.02953 0.058609,0.03473 0.064579,0.06458 0.016886,0.08443 -0.016886,0.173883 0,0.258316 0.00597,0.02985 0.050965,0.03735 0.064579,0.06458 0.074058,0.148116 0.071436,0.39433 0.1937369,0.516631 0.076107,0.07611 0.1910786,0.109691 0.2583156,0.193737 0.026895,0.03362 -0.019254,0.09065 0,0.129158 0.00963,0.01925 0.045325,-0.0096 0.064579,0 0.043053,0.02153 0.021527,0.107632 0.064579,0.129158 0.038508,0.01925 0.090651,-0.01925 0.129158,0 0.060886,0.03044 0.016444,0.145602 0.064579,0.193737 0.034036,0.03404 0.095122,0.03054 0.1291577,0.06458 0.068072,0.06807 0.061086,0.190243 0.1291579,0.258315 0.1281605,0.128161 0.020413,-0.305829 0.129158,0.129158 0.01044,0.04177 -0.030443,0.09871 0,0.129158 0.030443,0.03044 0.090651,-0.01925 0.1291579,0 0.019254,0.0096 -0.00681,0.04416 0,0.06458 0.030443,0.09133 0.1058093,0.164922 0.1291577,0.258316 0.02531,0.101241 0.05297,0.539849 0,0.645789 -0.00391,0.0078 -0.1832806,0.05412 -0.1937366,0.06458 -0.030443,0.03044 0.030443,0.09871 0,0.129158 -0.015221,0.01522 -0.043053,0 -0.064579,0 -0.135472,0 -0.200401,0.242687 -0.2583159,0.387474 z"
       id="path10" />
    <path
       style="fill:#00ffff;stroke:#00ffff;stroke-width:0.264583"
       d="m 4.9079993,22.53805 c -0.3312961,-0.187242 -0.5707017,-0.13126 -0.904105,-0.06458 -0.087032,0.01741 -0.3210753,0.0018 -0.2583159,0.06458 0.030443,0.03044 0.087391,-0.01044 0.1291579,0 0.3513715,0.08784 0.679332,0.08848 1.033263,0 z"
       id="path11" />
    <path
       style="fill:#00ffff;stroke:#00ffff;stroke-width:0.264583"
       d="M 7.0391043,6.7162097 C 6.8242174,6.9449846 6.7000109,7.2375312 6.5224728,7.4911571 6.4434293,7.6040765 6.3381577,7.6977652 6.2641572,7.8140517 6.1091045,8.0577059 6.0149787,8.3354576 5.8766836,8.588999 5.8165785,8.6991914 5.7295631,8.7953523 5.6829467,8.9118936 c -0.1368113,0.342028 0.00398,0.690489 -0.064579,1.033263 -0.076809,0.3840454 -0.064579,0.7655254 -0.064579,1.1624214 0,0.129157 0,0.258315 0,0.387473 0,0.04305 -0.043053,0.129158 0,0.129158 0.064579,0 -0.051663,-0.154989 0,-0.193737 0.071004,-0.05325 0.1767369,-0.02962 0.2583159,-0.06458 0.3240035,-0.138857 0.45422,-0.454941 0.6457895,-0.710367 C 6.5973544,10.469578 7.3257912,10.035676 7.3619991,9.9451566 7.679156,9.1522644 7.407295,8.660308 7.1682622,7.9432096 c -0.09041,-0.2712315 0.09041,-0.6328735 0,-0.9041053 C 7.1316042,6.9291305 7.082157,6.8238414 7.0391043,6.7162097 Z"
       id="path12" />
    <path
       style="fill:#00ffff;stroke:#00ffff;stroke-width:0.264583"
       d="m 12.269998,6.1349992 c -0.107631,0.064579 -0.234139,0.1049817 -0.322894,0.193737 -0.09797,0.09797 -0.678221,1.162704 -0.774947,1.3561575 -0.09481,0.1896272 -0.183875,0.3826997 -0.258316,0.5812105 -0.02815,0.075058 -0.07712,0.3653173 -0.129158,0.4520525 -0.03132,0.052209 -0.09783,0.076949 -0.129158,0.129158 -0.105027,0.1750443 -0.02174,0.2806858 -0.06458,0.4520525 -0.02129,0.085169 -0.220111,0.3610991 -0.129158,0.4520528 0.07404,0.074042 0.804899,-0.2732913 0.904105,-0.3228949 0.149926,-0.074963 0.526891,-0.6482008 0.581211,-0.7749471 0.03496,-0.081579 0.02489,-0.1789308 0.06458,-0.2583159 0.06942,-0.1388406 0.197168,-0.2447962 0.258315,-0.3874735 0.03496,-0.081579 0.02489,-0.1789308 0.06458,-0.2583159 0.02723,-0.054458 0.10193,-0.0747 0.129158,-0.1291579 0.316107,-0.6322129 0.0048,-0.083942 0.06458,-0.3228946 0.16312,-0.6524805 -0.02332,0.046638 0.129158,-0.2583159 0.07661,-0.1532194 0.14613,-0.611845 0.06458,-0.7749471 -0.0096,-0.019254 -0.04533,0.00963 -0.06458,0 -0.02723,-0.013615 -0.04305,-0.043053 -0.06458,-0.064579 -0.107631,-0.021527 -0.215263,-0.043053 -0.322896,-0.064579 z"
       id="path13" />
    <path
       style="fill:#00ffff;stroke:#00ffff;stroke-width:0.264583"
       d="m 18.146682,8.9118936 c 0.107632,-0.1076314 0.215263,-0.2152631 0.322895,-0.3228946 0.04305,-0.064579 0.07428,-0.1388554 0.129158,-0.1937369 0.05488,-0.054881 0.138855,-0.074276 0.193737,-0.1291579 0.152116,-0.1521161 0.233124,-0.4268618 0.387473,-0.5812105 0.05488,-0.054881 0.147168,-0.067066 0.193737,-0.1291576 0.02583,-0.034442 -0.03044,-0.098715 0,-0.129158 0.18482,-0.1848204 0.08088,0.1611305 0.193737,-0.064579 0.102793,-0.2055876 0.01437,-0.2332101 0.193737,-0.3228948 0.05286,-0.026429 0.186594,-0.057437 0.258315,-0.1291577 5.56e-4,-5.556e-4 0.107066,-0.3874738 0.06458,-0.3874738 -0.08876,0 0.05203,0.1704525 0.06458,0.2583159 0.01218,0.08524 -0.02723,0.1766292 0,0.2583156 0.09037,0.2711082 0.367896,0.6320581 0.452053,0.9686843 0.02365,0.09458 0.02658,0.345735 0,0.4520525 0.03892,0.1168839 -0.104614,0.1201055 -0.129158,0.1937369 -0.04494,0.1348158 -0.0426,0.6471386 0,0.7749471 0.03404,0.1021083 0.16059,0.1486329 0.258316,0.1937369 0.210506,0.097157 0.422864,0.194623 0.645789,0.2583157 0.08279,0.023654 0.172737,-0.00951 0.258316,0 0.329546,0.036616 0.635932,0.1681403 0.968684,0.1937373 0.807882,0.06214 1.642428,0 2.453999,0 0.179142,0 1.207067,-0.01993 1.227,0 0.07217,0.07217 8.73e-4,0.676763 -0.06458,0.774947 -0.01194,0.01791 -0.04305,0 -0.06458,0 -0.02153,0.04305 -0.04936,0.08349 -0.06458,0.129158 -0.05708,0.171244 0.07156,0.346463 -0.06458,0.516631 -0.127281,0.159101 -0.272415,0.149172 -0.322895,0.452053 -0.0568,0.340823 -0.07257,0.693731 -0.129158,1.033263 -0.01769,0.106167 0.0261,0.218477 0,0.322894 -0.09014,0.360577 -0.09044,0.736087 0,1.097842 0.01566,0.06265 -0.04566,0.148073 0,0.193737 0.01522,0.01522 0.04532,-0.0096 0.06458,0 0.123586,0.06179 0.263888,0.131944 0.387474,0.193737 0.177014,0.08851 0.519242,-0.05936 0.64579,0.193737 0.03899,0.07798 0.04348,0.201202 0.129156,0.258316 0.04005,0.0267 0.09512,0.03054 0.129159,0.06458 0.0066,0.0066 0.05656,0.246285 0.06458,0.258315 0.06845,0.102678 0.138377,0.01844 0.193736,0.129158 0.03941,0.07883 0.07717,0.270903 0.129159,0.322895 0.03404,0.03404 0.102457,0.02453 0.129156,0.06458 0.06212,0.09318 0.09963,1.027747 0.06458,1.097842 -0.0089,0.01783 -0.447522,7.67e-4 -0.452054,0 -0.229862,-0.03831 -0.563682,-0.280921 -0.710368,-0.452053 -0.06265,-0.07309 -0.06753,-0.18436 -0.129158,-0.258315 -0.04969,-0.05963 -0.138855,-0.07428 -0.193736,-0.129158 -0.03404,-0.03404 -0.03054,-0.09512 -0.06458,-0.129158 -0.488779,-0.488778 0.03382,0.11202 -0.322895,-0.193737 -0.256446,-0.047 -0.300328,-0.364907 -0.452053,-0.516632 -0.185074,-0.185074 -0.177379,-0.08869 -0.387473,-0.193736 -0.268762,-0.134381 0.06904,0.0045 -0.06458,-0.129158 -0.05488,-0.05488 -0.131646,-0.08259 -0.193737,-0.129158 -0.345641,-0.259231 -0.489727,-0.686168 -0.58121,-1.097842 -0.107632,-0.484342 0.07175,0.03588 0,-0.322895 -0.07149,-0.357433 -0.07566,-0.02405 -0.129158,-0.452052 -0.04486,-0.358844 0.10679,-1.007936 -0.258316,-1.227 -0.520046,-0.312027 -1.027954,-0.213494 -1.549895,-0.387474 -0.02888,-0.0096 -0.03735,-0.05096 -0.06458,-0.06458 -0.151951,-0.07597 -0.287139,-0.03709 -0.452052,-0.06458 -0.327356,-0.05456 -0.0687,-0.06623 -0.387474,-0.193737 -0.03997,-0.01599 -0.08739,0.01044 -0.129158,0 -0.258032,-0.06451 -9.78e-4,-0.06507 -0.258315,-0.193736 -0.144134,-0.07207 -0.388556,-0.06566 -0.516632,-0.193737 -0.0119,-0.0119 -0.05268,-0.181838 -0.06458,-0.193737 -0.03044,-0.03044 -0.09065,0.01925 -0.129158,0 -0.07629,-0.03815 -0.122496,-0.146243 -0.193736,-0.193737 -0.04005,-0.0267 -0.100278,-0.02607 -0.129158,-0.06458 -0.04084,-0.05446 -0.02206,-0.140581 -0.06458,-0.193736 -0.04849,-0.06061 -0.138856,-0.07428 -0.193737,-0.129158 -0.0861,-0.086106 0.136992,-0.06197 -0.06458,-0.1291584 -0.04084,-0.013615 -0.08831,0.013615 -0.129158,0 C 19.141868,9.9109396 19.083763,9.7356215 18.9862,9.68684 c -0.03851,-0.019254 -0.08739,0.010441 -0.129158,0 -0.06458,-0.021527 -0.129157,-0.043053 -0.193736,-0.064579 0,-0.021526 0.01925,-0.054952 0,-0.064579 -0.03851,-0.019254 -0.09065,0.019254 -0.129158,0 -0.01925,-0.00963 0.01925,-0.054952 0,-0.064579 -0.03851,-0.019254 -0.09065,0.019254 -0.129158,0 -0.0058,-0.00288 -0.0715,-0.16491 -0.129158,-0.1937369 -0.03851,-0.019254 -0.09871,0.030443 -0.129158,0 -0.09133,-0.091328 0,-0.2583156 0,-0.3874736 z"
       id="path14" />
    <path
       style="fill:#00ffff;stroke:#00ffff;stroke-width:0.264583"
       d="m 27.575208,22.150576 c 0,0.107632 -0.01521,0.216345 0,0.322895 0.0068,0.04765 0.05514,0.08196 0.06458,0.129158 0.03461,0.173068 0.06016,0.659041 0,0.839526 -0.0223,0.06689 -0.09712,0.12967 -0.129156,0.193737 -0.01926,0.03851 0.03044,0.09872 0,0.129158 -0.01521,0.01522 -0.04936,-0.01522 -0.06458,0 -0.04262,0.04262 -0.09123,0.207064 -0.193736,0.258315 -0.08908,0.04454 -0.05776,-0.07821 -0.129159,0.06458 -0.07953,0.159055 0.187457,-0.0583 -0.06458,0.193737 -0.06458,0.06458 -0.258316,0 -0.322895,0.06458 -0.133615,0.133616 0.204184,-0.0052 -0.06458,0.129158 -0.09464,0.04732 -0.74316,0.03179 -0.774948,0 -0.01522,-0.01522 0.01522,-0.04936 0,-0.06458 -0.06399,-0.06399 -0.279613,-0.09652 -0.387474,-0.258316 -0.06307,-0.0946 -0.262176,-0.512771 -0.193737,-0.58121 0.445189,-0.445189 0.155055,-0.140256 0.581211,-0.322895 0.09789,-0.04195 0.441546,-0.312388 0.516631,-0.387473 0.03404,-0.03404 0.03054,-0.09512 0.06458,-0.129158 0.03404,-0.03404 0.09512,-0.03054 0.129159,-0.06458 0.05047,-0.05047 0.04327,-0.194398 0.06458,-0.258316 0.0236,-0.07077 0.151863,-0.130927 0.193736,-0.193737 0.159054,-0.238582 -0.06792,-0.06123 0.258315,-0.387473 0.01521,-0.01522 0.05777,0.02042 0.06458,0 0.02043,-0.06126 -0.01566,-0.131086 0,-0.193737 0.0241,-0.09639 0.166502,-0.305768 0.193736,-0.387474 0.01363,-0.04084 -0.01363,-0.08831 0,-0.129158 0.0096,-0.02888 0.05861,-0.03473 0.06458,-0.06458 0.02484,-0.12419 -0.02484,-0.263283 0,-0.387473 0.07326,-0.366282 0.129159,-0.717074 0.129159,-1.097842 0,-0.129158 0,-0.258316 0,-0.387474 0,-0.02153 0.02154,-0.06458 0,-0.06458 -0.06807,0 0.04305,0.129158 0.06458,0.193737 0.0445,0.133486 0.03913,0.234778 0.06458,0.387474 0.04174,0.250458 0.150157,1.895375 0.06458,2.066526 -0.01363,0.02723 -0.04305,0.04305 -0.06458,0.06458 -0.04305,0.107631 -0.0861,0.215263 -0.129156,0.322894 z"
       id="path15" />
  </g>
  <g
     inkscape:label="Layer 1"
     inkscape:groupmode="layer"
     id="layer1"
     style="display:inline">
    <ellipse
       style="fill:#ffffff;stroke:#000000;stroke-width:0.356762"
       id="path1"
       cx="15.85413"
       cy="18.30813"
       rx="12.19162"
       ry="11.545831" />
    <ellipse
       style="fill:#552200;stroke:#552200;stroke-width:0.347646"
       id="path4"
       cx="15.918711"
       cy="19.373682"
       rx="6.7715468"
       ry="6.6746788" />
    <ellipse
       style="fill:#000000;stroke:#000000;stroke-width:0.264583"
       id="path5"
       cx="15.983287"
       cy="19.276814"
       rx="3.1320784"
       ry="2.8091838" />
    <ellipse
       style="fill:#ffffff;stroke:#ffffff;stroke-width:0.264583"
       id="path6"
       cx="19.309105"
       cy="16.241604"
       rx="1.6144736"
       ry="1.5176051" />
  </g>
</svg>
